<?xml version="1.0" encoding="UTF-8" standalone="no"?>
<!DOCTYPE svg PUBLIC "-//W3C//DTD SVG 1.1//EN" "http://www.w3.org/Graphics/SVG/1.1/DTD/svg11.dtd">
<svg width="100%" height="100%" viewBox="0 0 400 150" version="1.1" xmlns="http://www.w3.org/2000/svg" xmlns:xlink="http://www.w3.org/1999/xlink" xml:space="preserve" xmlns:serif="http://www.serif.com/" style="fill-rule:evenodd;clip-rule:evenodd;stroke-linejoin:round;stroke-miterlimit:2;">
    <g transform="matrix(16.4809,0,0,13.7503,-742.686,-757.6)">
        <g transform="matrix(8.66602,0,0,8.66602,50.1744,61.8229)">
            <path d="M0.054,-0L0.054,-0.711L0.309,-0.711C0.401,-0.711 0.47,-0.694 0.518,-0.661C0.566,-0.627 0.589,-0.578 0.589,-0.515C0.589,-0.478 0.581,-0.446 0.564,-0.42C0.547,-0.394 0.522,-0.375 0.489,-0.363C0.526,-0.353 0.555,-0.335 0.575,-0.308C0.595,-0.281 0.604,-0.249 0.604,-0.21C0.604,-0.141 0.582,-0.088 0.538,-0.053C0.494,-0.018 0.429,-0.001 0.342,-0L0.054,-0ZM0.225,-0.302L0.225,-0.132L0.337,-0.132C0.368,-0.132 0.392,-0.139 0.409,-0.153C0.425,-0.167 0.434,-0.187 0.434,-0.213C0.434,-0.272 0.404,-0.302 0.345,-0.302L0.225,-0.302ZM0.225,-0.415L0.314,-0.415C0.352,-0.415 0.379,-0.422 0.395,-0.435C0.41,-0.448 0.418,-0.468 0.418,-0.494C0.418,-0.524 0.41,-0.546 0.393,-0.559C0.375,-0.572 0.347,-0.579 0.309,-0.579L0.225,-0.579L0.225,-0.415Z" style="fill-rule:nonzero;"/>
        </g>
        <g transform="matrix(8.66602,0,0,8.66602,55.7641,61.8229)">
            <path d="M0.344,-0C0.338,-0.011 0.333,-0.027 0.328,-0.047C0.298,-0.009 0.256,0.01 0.201,0.01C0.151,0.01 0.109,-0.005 0.074,-0.035C0.039,-0.066 0.022,-0.103 0.022,-0.149C0.022,-0.206 0.043,-0.25 0.085,-0.279C0.128,-0.308 0.189,-0.323 0.27,-0.323L0.321,-0.323L0.321,-0.351C0.321,-0.399 0.3,-0.423 0.258,-0.423C0.219,-0.423 0.199,-0.404 0.199,-0.366L0.035,-0.366C0.035,-0.417 0.056,-0.458 0.1,-0.49C0.143,-0.522 0.199,-0.538 0.266,-0.538C0.333,-0.538 0.387,-0.522 0.426,-0.489C0.465,-0.456 0.485,-0.411 0.486,-0.354L0.486,-0.12C0.486,-0.071 0.494,-0.034 0.508,-0.008L0.508,-0L0.344,-0ZM0.241,-0.107C0.261,-0.107 0.278,-0.112 0.292,-0.121C0.305,-0.129 0.315,-0.139 0.321,-0.15L0.321,-0.235L0.273,-0.235C0.216,-0.235 0.187,-0.209 0.187,-0.158C0.187,-0.143 0.192,-0.131 0.202,-0.121C0.212,-0.112 0.225,-0.107 0.241,-0.107Z" style="fill-rule:nonzero;"/>
        </g>
        <g transform="matrix(8.66602,0,0,8.66602,60.3637,61.8229)">
            <path d="M0.501,-0.283L0.225,-0.283L0.225,-0L0.054,-0L0.054,-0.711L0.529,-0.711L0.529,-0.579L0.225,-0.579L0.225,-0.415L0.501,-0.415L0.501,-0.283Z" style="fill-rule:nonzero;"/>
        </g>
    </g>
    <g transform="matrix(1.46479,0,0,1.82543,-64.3188,-75.538)">
        <g transform="matrix(30,0,0,30,104.837,116.481)">
            <path d="M0.147,-0L0.065,-0L0.065,-0.716L0.153,-0.716L0.153,-0.46C0.19,-0.507 0.238,-0.53 0.295,-0.53C0.327,-0.53 0.358,-0.524 0.386,-0.511C0.414,-0.498 0.438,-0.48 0.456,-0.457C0.475,-0.434 0.489,-0.405 0.5,-0.373C0.51,-0.34 0.515,-0.305 0.515,-0.267C0.515,-0.178 0.493,-0.11 0.449,-0.061C0.405,-0.013 0.353,0.012 0.291,0.012C0.23,0.012 0.182,-0.014 0.147,-0.065L0.147,-0ZM0.146,-0.263C0.146,-0.201 0.154,-0.156 0.171,-0.128C0.199,-0.083 0.236,-0.061 0.284,-0.061C0.322,-0.061 0.355,-0.077 0.383,-0.111C0.411,-0.144 0.425,-0.194 0.425,-0.26C0.425,-0.327 0.412,-0.377 0.385,-0.41C0.358,-0.442 0.326,-0.458 0.288,-0.458C0.249,-0.458 0.216,-0.441 0.188,-0.408C0.16,-0.375 0.146,-0.326 0.146,-0.263Z" style="fill-rule:nonzero;"/>
        </g>
        <g transform="matrix(30,0,0,30,121.521,116.481)">
            <path d="M0.033,-0.259C0.033,-0.355 0.06,-0.426 0.113,-0.473C0.158,-0.511 0.212,-0.53 0.276,-0.53C0.348,-0.53 0.406,-0.507 0.451,-0.46C0.496,-0.413 0.519,-0.349 0.519,-0.267C0.519,-0.2 0.509,-0.147 0.489,-0.109C0.469,-0.071 0.44,-0.041 0.402,-0.02C0.363,0.001 0.322,0.012 0.276,0.012C0.204,0.012 0.145,-0.012 0.1,-0.058C0.056,-0.105 0.033,-0.172 0.033,-0.259ZM0.124,-0.259C0.124,-0.193 0.138,-0.143 0.167,-0.11C0.196,-0.077 0.232,-0.061 0.276,-0.061C0.32,-0.061 0.356,-0.077 0.385,-0.11C0.414,-0.144 0.429,-0.194 0.429,-0.262C0.429,-0.326 0.414,-0.375 0.385,-0.408C0.356,-0.441 0.32,-0.458 0.276,-0.458C0.232,-0.458 0.196,-0.441 0.167,-0.408C0.138,-0.375 0.124,-0.326 0.124,-0.259Z" style="fill-rule:nonzero;"/>
        </g>
        <g transform="matrix(30,0,0,30,138.206,116.481)">
            <path d="M0.033,-0.259C0.033,-0.355 0.06,-0.426 0.113,-0.473C0.158,-0.511 0.212,-0.53 0.276,-0.53C0.348,-0.53 0.406,-0.507 0.451,-0.46C0.496,-0.413 0.519,-0.349 0.519,-0.267C0.519,-0.2 0.509,-0.147 0.489,-0.109C0.469,-0.071 0.44,-0.041 0.402,-0.02C0.363,0.001 0.322,0.012 0.276,0.012C0.204,0.012 0.145,-0.012 0.1,-0.058C0.056,-0.105 0.033,-0.172 0.033,-0.259ZM0.124,-0.259C0.124,-0.193 0.138,-0.143 0.167,-0.11C0.196,-0.077 0.232,-0.061 0.276,-0.061C0.32,-0.061 0.356,-0.077 0.385,-0.11C0.414,-0.144 0.429,-0.194 0.429,-0.262C0.429,-0.326 0.414,-0.375 0.385,-0.408C0.356,-0.441 0.32,-0.458 0.276,-0.458C0.232,-0.458 0.196,-0.441 0.167,-0.408C0.138,-0.375 0.124,-0.326 0.124,-0.259Z" style="fill-rule:nonzero;"/>
        </g>
        <g transform="matrix(30,0,0,30,154.89,116.481)">
            <path d="M0.066,-0L0.066,-0.716L0.154,-0.716L0.154,-0.308L0.362,-0.519L0.476,-0.519L0.278,-0.326L0.496,-0L0.388,-0L0.216,-0.265L0.154,-0.206L0.154,-0L0.066,-0Z" style="fill-rule:nonzero;"/>
        </g>
        <g transform="matrix(30,0,0,30,178.225,116.481)">
            <path d="M0.404,-0.064C0.372,-0.036 0.34,-0.017 0.31,-0.005C0.28,0.006 0.248,0.012 0.213,0.012C0.156,0.012 0.113,-0.002 0.082,-0.03C0.051,-0.058 0.036,-0.093 0.036,-0.137C0.036,-0.162 0.042,-0.185 0.053,-0.206C0.065,-0.227 0.08,-0.244 0.099,-0.257C0.118,-0.27 0.139,-0.279 0.162,-0.286C0.179,-0.29 0.205,-0.295 0.24,-0.299C0.311,-0.307 0.363,-0.317 0.397,-0.329C0.397,-0.341 0.397,-0.349 0.397,-0.352C0.397,-0.388 0.389,-0.413 0.373,-0.428C0.35,-0.448 0.317,-0.458 0.272,-0.458C0.231,-0.458 0.201,-0.45 0.181,-0.436C0.161,-0.421 0.147,-0.396 0.137,-0.359L0.051,-0.371C0.059,-0.407 0.072,-0.437 0.09,-0.46C0.108,-0.482 0.134,-0.5 0.167,-0.512C0.201,-0.524 0.241,-0.53 0.285,-0.53C0.329,-0.53 0.365,-0.525 0.393,-0.515C0.421,-0.504 0.441,-0.491 0.454,-0.475C0.467,-0.46 0.476,-0.44 0.481,-0.416C0.484,-0.401 0.486,-0.374 0.486,-0.334L0.486,-0.217C0.486,-0.136 0.488,-0.084 0.491,-0.062C0.495,-0.041 0.503,-0.02 0.514,-0L0.422,-0C0.413,-0.018 0.407,-0.04 0.404,-0.064ZM0.397,-0.26C0.365,-0.247 0.317,-0.236 0.253,-0.227C0.217,-0.222 0.192,-0.216 0.177,-0.209C0.162,-0.203 0.15,-0.193 0.142,-0.181C0.134,-0.168 0.13,-0.154 0.13,-0.139C0.13,-0.116 0.139,-0.096 0.156,-0.081C0.174,-0.065 0.2,-0.057 0.234,-0.057C0.268,-0.057 0.298,-0.065 0.325,-0.079C0.351,-0.094 0.37,-0.114 0.383,-0.14C0.392,-0.16 0.397,-0.189 0.397,-0.228L0.397,-0.26Z" style="fill-rule:nonzero;"/>
        </g>
        <g transform="matrix(30,0,0,30,203.245,116.481)">
            <path d="M0.089,-0L0.089,-0.451L0.011,-0.451L0.011,-0.519L0.089,-0.519L0.089,-0.569C0.089,-0.62 0.1,-0.66 0.123,-0.687C0.145,-0.714 0.18,-0.728 0.228,-0.728C0.26,-0.728 0.29,-0.724 0.317,-0.717L0.303,-0.643C0.286,-0.646 0.27,-0.647 0.256,-0.647C0.226,-0.647 0.205,-0.641 0.194,-0.629C0.183,-0.617 0.177,-0.591 0.177,-0.552L0.177,-0.519L0.278,-0.519L0.278,-0.451L0.177,-0.451L0.177,-0L0.089,-0ZM0.343,-0L0.343,-0.716L0.431,-0.716L0.431,-0L0.343,-0Z" style="fill-rule:nonzero;"/>
        </g>
        <g transform="matrix(30,0,0,30,218.245,116.481)">
            <path d="M0.066,-0.615L0.066,-0.716L0.154,-0.716L0.154,-0.615L0.066,-0.615ZM0.066,-0L0.066,-0.519L0.154,-0.519L0.154,-0L0.066,-0Z" style="fill-rule:nonzero;"/>
        </g>
        <g transform="matrix(30,0,0,30,224.91,116.481)">
            <path d="M0.05,0.043L0.135,0.056C0.139,0.082 0.149,0.101 0.165,0.113C0.187,0.13 0.217,0.138 0.254,0.138C0.295,0.138 0.326,0.13 0.349,0.113C0.371,0.097 0.386,0.074 0.394,0.045C0.398,0.027 0.4,-0.011 0.4,-0.068C0.361,-0.023 0.314,-0 0.256,-0C0.185,-0 0.13,-0.026 0.091,-0.077C0.052,-0.129 0.032,-0.19 0.032,-0.262C0.032,-0.312 0.041,-0.357 0.059,-0.399C0.077,-0.441 0.103,-0.473 0.137,-0.496C0.171,-0.519 0.211,-0.53 0.257,-0.53C0.318,-0.53 0.368,-0.506 0.408,-0.456L0.408,-0.519L0.489,-0.519L0.489,-0.07C0.489,0.01 0.481,0.068 0.465,0.101C0.448,0.135 0.422,0.162 0.386,0.181C0.351,0.201 0.307,0.21 0.255,0.21C0.193,0.21 0.143,0.197 0.105,0.169C0.067,0.141 0.049,0.099 0.05,0.043ZM0.123,-0.269C0.123,-0.201 0.136,-0.151 0.163,-0.12C0.19,-0.088 0.224,-0.073 0.265,-0.073C0.305,-0.073 0.339,-0.088 0.366,-0.119C0.394,-0.15 0.407,-0.199 0.407,-0.266C0.407,-0.329 0.393,-0.377 0.365,-0.409C0.337,-0.441 0.303,-0.458 0.263,-0.458C0.224,-0.458 0.191,-0.442 0.164,-0.41C0.136,-0.378 0.123,-0.331 0.123,-0.269Z" style="fill-rule:nonzero;"/>
        </g>
        <g transform="matrix(30,0,0,30,241.594,116.481)">
            <path d="M0.066,-0L0.066,-0.716L0.154,-0.716L0.154,-0.459C0.195,-0.507 0.247,-0.53 0.309,-0.53C0.347,-0.53 0.381,-0.523 0.409,-0.508C0.438,-0.492 0.458,-0.472 0.47,-0.445C0.482,-0.418 0.488,-0.379 0.488,-0.329L0.488,-0L0.4,-0L0.4,-0.329C0.4,-0.373 0.391,-0.405 0.372,-0.425C0.353,-0.445 0.326,-0.455 0.291,-0.455C0.265,-0.455 0.24,-0.448 0.218,-0.434C0.195,-0.421 0.178,-0.403 0.168,-0.379C0.159,-0.356 0.154,-0.324 0.154,-0.284L0.154,-0L0.066,-0Z" style="fill-rule:nonzero;"/>
        </g>
        <g transform="matrix(30,0,0,30,258.279,116.481)">
            <path d="M0.258,-0.079L0.271,-0.001C0.246,0.004 0.224,0.007 0.204,0.007C0.172,0.007 0.147,0.002 0.13,-0.008C0.112,-0.018 0.1,-0.032 0.093,-0.048C0.086,-0.065 0.082,-0.099 0.082,-0.152L0.082,-0.45L0.018,-0.45L0.018,-0.519L0.082,-0.519L0.082,-0.647L0.169,-0.7L0.169,-0.519L0.258,-0.519L0.258,-0.45L0.169,-0.45L0.169,-0.147C0.169,-0.122 0.171,-0.106 0.174,-0.099C0.177,-0.091 0.182,-0.086 0.189,-0.082C0.196,-0.077 0.206,-0.075 0.219,-0.075C0.229,-0.075 0.242,-0.076 0.258,-0.079Z" style="fill-rule:nonzero;"/>
        </g>
    </g>
</svg>
