<?xml version="1.0" encoding="UTF-8" standalone="no"?>
<!DOCTYPE svg PUBLIC "-//W3C//DTD SVG 1.1//EN" "http://www.w3.org/Graphics/SVG/1.1/DTD/svg11.dtd">
<svg width="100%" height="100%" viewBox="0 0 1920 1200" version="1.1" xmlns="http://www.w3.org/2000/svg" xmlns:xlink="http://www.w3.org/1999/xlink" xml:space="preserve" xmlns:serif="http://www.serif.com/" style="fill-rule:evenodd;clip-rule:evenodd;stroke-linecap:round;stroke-linejoin:round;stroke-miterlimit:1.5;">
    <g id="body" transform="matrix(1.45496,0,0,0.852039,-463.486,115.185)">
        <path d="M1578.29,467.846C1578.29,406.069 1504.72,355.487 1442.94,355.487L637.893,355.487C576.117,355.487 456.408,427.196 409.898,464.211C306.695,546.346 310.105,615.459 406.777,680.299C450.598,709.691 576.117,803.214 637.893,803.214L1442.94,803.214C1504.72,803.214 1579.34,752.613 1579.34,690.836L1578.29,467.846Z" style="fill:none;stroke:black;stroke-width:2.52px;"/>
    </g>
    <g id="cockpit" transform="matrix(0.134943,0,0,0.264515,58.785,455.567)">
        <path d="M1578.29,467.846C1578.29,406.069 1504.72,355.487 1442.94,355.487L637.893,355.487C576.117,355.487 456.408,427.196 409.898,464.211C306.695,546.346 310.105,615.459 406.777,680.299C450.598,709.691 576.117,803.214 637.893,803.214L1442.94,803.214C1504.72,803.214 1579.34,752.613 1579.34,690.836L1578.29,467.846Z" style="fill:none;stroke:black;stroke-width:14.29px;"/>
    </g>
    <g id="premium">
        <g id="n">
            <g id="n2" transform="matrix(0.810444,0,0,0.810444,376.622,275.688)">
                <path d="M1500.23,469.914C1500.23,462.597 1494.29,456.656 1486.97,456.656L1460.45,456.656C1453.13,456.656 1447.19,462.597 1447.19,469.914L1447.19,498.118C1447.19,505.436 1453.13,511.376 1460.45,511.376L1486.97,511.376C1494.29,511.376 1500.23,505.436 1500.23,498.118L1500.23,469.914Z" style="fill:rgb(140,140,140);"/>
            </g>
            <g id="n4" transform="matrix(0.810444,0,0,0.810444,376.622,88.4099)">
                <path d="M1500.23,469.914C1500.23,462.597 1494.29,456.656 1486.97,456.656L1460.45,456.656C1453.13,456.656 1447.19,462.597 1447.19,469.914L1447.19,498.118C1447.19,505.436 1453.13,511.376 1460.45,511.376L1486.97,511.376C1494.29,511.376 1500.23,505.436 1500.23,498.118L1500.23,469.914Z" style="fill:rgb(140,140,140);"/>
            </g>
            <g id="n1" transform="matrix(0.810444,0,0,0.810444,376.622,345.439)">
                <path d="M1500.23,469.914C1500.23,462.597 1494.29,456.656 1486.97,456.656L1460.45,456.656C1453.13,456.656 1447.19,462.597 1447.19,469.914L1447.19,498.118C1447.19,505.436 1453.13,511.376 1460.45,511.376L1486.97,511.376C1494.29,511.376 1500.23,505.436 1500.23,498.118L1500.23,469.914Z" style="fill:rgb(140,140,140);"/>
            </g>
            <g id="n3" transform="matrix(0.810444,0,0,0.810444,376.622,158.161)">
                <path d="M1500.23,469.914C1500.23,462.597 1494.29,456.656 1486.97,456.656L1460.45,456.656C1453.13,456.656 1447.19,462.597 1447.19,469.914L1447.19,498.118C1447.19,505.436 1453.13,511.376 1460.45,511.376L1486.97,511.376C1494.29,511.376 1500.23,505.436 1500.23,498.118L1500.23,469.914Z" style="fill:rgb(140,140,140);"/>
            </g>
        </g>
        <g id="m">
            <g id="m2" transform="matrix(0.810444,0,0,0.810444,314.192,275.688)">
                <path d="M1500.23,469.914C1500.23,462.597 1494.29,456.656 1486.97,456.656L1460.45,456.656C1453.13,456.656 1447.19,462.597 1447.19,469.914L1447.19,498.118C1447.19,505.436 1453.13,511.376 1460.45,511.376L1486.97,511.376C1494.29,511.376 1500.23,505.436 1500.23,498.118L1500.23,469.914Z" style="fill:rgb(140,140,140);"/>
            </g>
            <g id="m4" transform="matrix(0.810444,0,0,0.810444,314.192,88.4099)">
                <path d="M1500.23,469.914C1500.23,462.597 1494.29,456.656 1486.97,456.656L1460.45,456.656C1453.13,456.656 1447.19,462.597 1447.19,469.914L1447.19,498.118C1447.19,505.436 1453.13,511.376 1460.45,511.376L1486.97,511.376C1494.29,511.376 1500.23,505.436 1500.23,498.118L1500.23,469.914Z" style="fill:rgb(140,140,140);"/>
            </g>
            <g id="m1" transform="matrix(0.810444,0,0,0.810444,314.192,344.812)">
                <path d="M1500.23,469.914C1500.23,462.597 1494.29,456.656 1486.97,456.656L1460.45,456.656C1453.13,456.656 1447.19,462.597 1447.19,469.914L1447.19,498.118C1447.19,505.436 1453.13,511.376 1460.45,511.376L1486.97,511.376C1494.29,511.376 1500.23,505.436 1500.23,498.118L1500.23,469.914Z" style="fill:rgb(140,140,140);"/>
            </g>
            <g id="m3" transform="matrix(0.810444,0,0,0.810444,314.192,157.534)">
                <path d="M1500.23,469.914C1500.23,462.597 1494.29,456.656 1486.97,456.656L1460.45,456.656C1453.13,456.656 1447.19,462.597 1447.19,469.914L1447.19,498.118C1447.19,505.436 1453.13,511.376 1460.45,511.376L1486.97,511.376C1494.29,511.376 1500.23,505.436 1500.23,498.118L1500.23,469.914Z" style="fill:rgb(140,140,140);"/>
            </g>
        </g>
        <g id="p">
            <g id="p3" transform="matrix(0.810444,0,0,0.810444,513.132,87.6526)">
                <path d="M1500.23,469.914C1500.23,462.597 1494.29,456.656 1486.97,456.656L1460.45,456.656C1453.13,456.656 1447.19,462.597 1447.19,469.914L1447.19,498.118C1447.19,505.436 1453.13,511.376 1460.45,511.376L1486.97,511.376C1494.29,511.376 1500.23,505.436 1500.23,498.118L1500.23,469.914Z" style="fill:rgb(140,140,140);"/>
            </g>
            <g id="p2" transform="matrix(0.810444,0,0,0.810444,513.132,216.04)">
                <path d="M1500.23,469.914C1500.23,462.597 1494.29,456.656 1486.97,456.656L1460.45,456.656C1453.13,456.656 1447.19,462.597 1447.19,469.914L1447.19,498.118C1447.19,505.436 1453.13,511.376 1460.45,511.376L1486.97,511.376C1494.29,511.376 1500.23,505.436 1500.23,498.118L1500.23,469.914Z" style="fill:rgb(140,140,140);"/>
            </g>
            <g id="p1" transform="matrix(0.810444,0,0,0.810444,513.132,344.427)">
                <path d="M1500.23,469.914C1500.23,462.597 1494.29,456.656 1486.97,456.656L1460.45,456.656C1453.13,456.656 1447.19,462.597 1447.19,469.914L1447.19,498.118C1447.19,505.436 1453.13,511.376 1460.45,511.376L1486.97,511.376C1494.29,511.376 1500.23,505.436 1500.23,498.118L1500.23,469.914Z" style="fill:rgb(140,140,140);"/>
            </g>
        </g>
        <g id="o">
            <g id="o3" transform="matrix(0.810444,0,0,0.810444,450.043,87.6526)">
                <path d="M1500.23,469.914C1500.23,462.597 1494.29,456.656 1486.97,456.656L1460.45,456.656C1453.13,456.656 1447.19,462.597 1447.19,469.914L1447.19,498.118C1447.19,505.436 1453.13,511.376 1460.45,511.376L1486.97,511.376C1494.29,511.376 1500.23,505.436 1500.23,498.118L1500.23,469.914Z" style="fill:rgb(140,140,140);"/>
            </g>
            <g id="o2" transform="matrix(0.810444,0,0,0.810444,450.043,216.04)">
                <path d="M1500.23,469.914C1500.23,462.597 1494.29,456.656 1486.97,456.656L1460.45,456.656C1453.13,456.656 1447.19,462.597 1447.19,469.914L1447.19,498.118C1447.19,505.436 1453.13,511.376 1460.45,511.376L1486.97,511.376C1494.29,511.376 1500.23,505.436 1500.23,498.118L1500.23,469.914Z" style="fill:rgb(140,140,140);"/>
            </g>
            <g id="o1" transform="matrix(0.810444,0,0,0.810444,450.043,344.427)">
                <path d="M1500.23,469.914C1500.23,462.597 1494.29,456.656 1486.97,456.656L1460.45,456.656C1453.13,456.656 1447.19,462.597 1447.19,469.914L1447.19,498.118C1447.19,505.436 1453.13,511.376 1460.45,511.376L1486.97,511.376C1494.29,511.376 1500.23,505.436 1500.23,498.118L1500.23,469.914Z" style="fill:rgb(140,140,140);"/>
            </g>
        </g>
    </g>
    <g id="business">
        <g id="k">
            <g id="k4" transform="matrix(0.810444,0,0,0.810444,21.3513,134.676)">
                <path d="M1500.23,469.914C1500.23,462.597 1494.29,456.656 1486.97,456.656L1460.45,456.656C1453.13,456.656 1447.19,462.597 1447.19,469.914L1447.19,498.118C1447.19,505.436 1453.13,511.376 1460.45,511.376L1486.97,511.376C1494.29,511.376 1500.23,505.436 1500.23,498.118L1500.23,469.914Z" style="fill:rgb(140,140,140);"/>
            </g>
            <g id="k5" transform="matrix(0.810444,0,0,0.810444,21.3513,74.1758)">
                <path d="M1500.23,469.914C1500.23,462.597 1494.29,456.656 1486.97,456.656L1460.45,456.656C1453.13,456.656 1447.19,462.597 1447.19,469.914L1447.19,498.118C1447.19,505.436 1453.13,511.376 1460.45,511.376L1486.97,511.376C1494.29,511.376 1500.23,505.436 1500.23,498.118L1500.23,469.914Z" style="fill:rgb(140,140,140);"/>
            </g>
            <g id="k2" transform="matrix(0.810444,0,0,0.810444,21.3513,236.301)">
                <path d="M1500.23,469.914C1500.23,462.597 1494.29,456.656 1486.97,456.656L1460.45,456.656C1453.13,456.656 1447.19,462.597 1447.19,469.914L1447.19,498.118C1447.19,505.436 1453.13,511.376 1460.45,511.376L1486.97,511.376C1494.29,511.376 1500.23,505.436 1500.23,498.118L1500.23,469.914Z" style="fill:rgb(140,140,140);"/>
            </g>
            <g id="k21" serif:id="k2" transform="matrix(0.810444,0,0,0.810444,21.3513,297.925)">
                <path d="M1500.23,469.914C1500.23,462.597 1494.29,456.656 1486.97,456.656L1460.45,456.656C1453.13,456.656 1447.19,462.597 1447.19,469.914L1447.19,498.118C1447.19,505.436 1453.13,511.376 1460.45,511.376L1486.97,511.376C1494.29,511.376 1500.23,505.436 1500.23,498.118L1500.23,469.914Z" style="fill:rgb(140,140,140);"/>
            </g>
            <g id="k1" transform="matrix(0.810444,0,0,0.810444,21.3513,359.55)">
                <path d="M1500.23,469.914C1500.23,462.597 1494.29,456.656 1486.97,456.656L1460.45,456.656C1453.13,456.656 1447.19,462.597 1447.19,469.914L1447.19,498.118C1447.19,505.436 1453.13,511.376 1460.45,511.376L1486.97,511.376C1494.29,511.376 1500.23,505.436 1500.23,498.118L1500.23,469.914Z" style="fill:rgb(140,140,140);"/>
            </g>
        </g>
        <g id="l">
            <g id="l4" transform="matrix(0.810444,0,0,0.810444,81.3422,134.676)">
                <path d="M1500.23,469.914C1500.23,462.597 1494.29,456.656 1486.97,456.656L1460.45,456.656C1453.13,456.656 1447.19,462.597 1447.19,469.914L1447.19,498.118C1447.19,505.436 1453.13,511.376 1460.45,511.376L1486.97,511.376C1494.29,511.376 1500.23,505.436 1500.23,498.118L1500.23,469.914Z" style="fill:rgb(140,140,140);"/>
            </g>
            <g id="l5" transform="matrix(0.810444,0,0,0.810444,81.3422,74.1758)">
                <path d="M1500.23,469.914C1500.23,462.597 1494.29,456.656 1486.97,456.656L1460.45,456.656C1453.13,456.656 1447.19,462.597 1447.19,469.914L1447.19,498.118C1447.19,505.436 1453.13,511.376 1460.45,511.376L1486.97,511.376C1494.29,511.376 1500.23,505.436 1500.23,498.118L1500.23,469.914Z" style="fill:rgb(140,140,140);"/>
            </g>
            <g id="l3" transform="matrix(0.810444,0,0,0.810444,81.3422,236.301)">
                <path d="M1500.23,469.914C1500.23,462.597 1494.29,456.656 1486.97,456.656L1460.45,456.656C1453.13,456.656 1447.19,462.597 1447.19,469.914L1447.19,498.118C1447.19,505.436 1453.13,511.376 1460.45,511.376L1486.97,511.376C1494.29,511.376 1500.23,505.436 1500.23,498.118L1500.23,469.914Z" style="fill:rgb(140,140,140);"/>
            </g>
            <g id="l2" transform="matrix(0.810444,0,0,0.810444,81.3422,297.925)">
                <path d="M1500.23,469.914C1500.23,462.597 1494.29,456.656 1486.97,456.656L1460.45,456.656C1453.13,456.656 1447.19,462.597 1447.19,469.914L1447.19,498.118C1447.19,505.436 1453.13,511.376 1460.45,511.376L1486.97,511.376C1494.29,511.376 1500.23,505.436 1500.23,498.118L1500.23,469.914Z" style="fill:rgb(140,140,140);"/>
            </g>
            <g id="l1" transform="matrix(0.810444,0,0,0.810444,81.3422,359.55)">
                <path d="M1500.23,469.914C1500.23,462.597 1494.29,456.656 1486.97,456.656L1460.45,456.656C1453.13,456.656 1447.19,462.597 1447.19,469.914L1447.19,498.118C1447.19,505.436 1453.13,511.376 1460.45,511.376L1486.97,511.376C1494.29,511.376 1500.23,505.436 1500.23,498.118L1500.23,469.914Z" style="fill:rgb(140,140,140);"/>
            </g>
        </g>
        <g id="j">
            <g id="j4" transform="matrix(0.810444,0,0,0.810444,-41.0783,134.048)">
                <path d="M1500.23,469.914C1500.23,462.597 1494.29,456.656 1486.97,456.656L1460.45,456.656C1453.13,456.656 1447.19,462.597 1447.19,469.914L1447.19,498.118C1447.19,505.436 1453.13,511.376 1460.45,511.376L1486.97,511.376C1494.29,511.376 1500.23,505.436 1500.23,498.118L1500.23,469.914Z" style="fill:rgb(140,140,140);"/>
            </g>
            <g id="j5" transform="matrix(0.810444,0,0,0.810444,-41.0783,73.5485)">
                <path d="M1500.23,469.914C1500.23,462.597 1494.29,456.656 1486.97,456.656L1460.45,456.656C1453.13,456.656 1447.19,462.597 1447.19,469.914L1447.19,498.118C1447.19,505.436 1453.13,511.376 1460.45,511.376L1486.97,511.376C1494.29,511.376 1500.23,505.436 1500.23,498.118L1500.23,469.914Z" style="fill:rgb(140,140,140);"/>
            </g>
            <g id="j3" transform="matrix(0.810444,0,0,0.810444,-41.0783,235.673)">
                <path d="M1500.23,469.914C1500.23,462.597 1494.29,456.656 1486.97,456.656L1460.45,456.656C1453.13,456.656 1447.19,462.597 1447.19,469.914L1447.19,498.118C1447.19,505.436 1453.13,511.376 1460.45,511.376L1486.97,511.376C1494.29,511.376 1500.23,505.436 1500.23,498.118L1500.23,469.914Z" style="fill:rgb(140,140,140);"/>
            </g>
            <g id="j2" transform="matrix(0.810444,0,0,0.810444,-41.0783,297.298)">
                <path d="M1500.23,469.914C1500.23,462.597 1494.29,456.656 1486.97,456.656L1460.45,456.656C1453.13,456.656 1447.19,462.597 1447.19,469.914L1447.19,498.118C1447.19,505.436 1453.13,511.376 1460.45,511.376L1486.97,511.376C1494.29,511.376 1500.23,505.436 1500.23,498.118L1500.23,469.914Z" style="fill:rgb(140,140,140);"/>
            </g>
            <g id="j1" transform="matrix(0.810444,0,0,0.810444,-41.0783,358.923)">
                <path d="M1500.23,469.914C1500.23,462.597 1494.29,456.656 1486.97,456.656L1460.45,456.656C1453.13,456.656 1447.19,462.597 1447.19,469.914L1447.19,498.118C1447.19,505.436 1453.13,511.376 1460.45,511.376L1486.97,511.376C1494.29,511.376 1500.23,505.436 1500.23,498.118L1500.23,469.914Z" style="fill:rgb(140,140,140);"/>
            </g>
        </g>
        <g id="i">
            <g id="i4" transform="matrix(0.810444,0,0,0.810444,-103.508,134.042)">
                <path d="M1500.23,469.914C1500.23,462.597 1494.29,456.656 1486.97,456.656L1460.45,456.656C1453.13,456.656 1447.19,462.597 1447.19,469.914L1447.19,498.118C1447.19,505.436 1453.13,511.376 1460.45,511.376L1486.97,511.376C1494.29,511.376 1500.23,505.436 1500.23,498.118L1500.23,469.914Z" style="fill:rgb(140,140,140);"/>
            </g>
            <g id="i5" transform="matrix(0.810444,0,0,0.810444,-103.508,73.5416)">
                <path d="M1500.23,469.914C1500.23,462.597 1494.29,456.656 1486.97,456.656L1460.45,456.656C1453.13,456.656 1447.19,462.597 1447.19,469.914L1447.19,498.118C1447.19,505.436 1453.13,511.376 1460.45,511.376L1486.97,511.376C1494.29,511.376 1500.23,505.436 1500.23,498.118L1500.23,469.914Z" style="fill:rgb(140,140,140);"/>
            </g>
            <g id="i3" transform="matrix(0.810444,0,0,0.810444,-103.508,235.666)">
                <path d="M1500.23,469.914C1500.23,462.597 1494.29,456.656 1486.97,456.656L1460.45,456.656C1453.13,456.656 1447.19,462.597 1447.19,469.914L1447.19,498.118C1447.19,505.436 1453.13,511.376 1460.45,511.376L1486.97,511.376C1494.29,511.376 1500.23,505.436 1500.23,498.118L1500.23,469.914Z" style="fill:rgb(140,140,140);"/>
            </g>
            <g id="i2" transform="matrix(0.810444,0,0,0.810444,-103.508,297.291)">
                <path d="M1500.23,469.914C1500.23,462.597 1494.29,456.656 1486.97,456.656L1460.45,456.656C1453.13,456.656 1447.19,462.597 1447.19,469.914L1447.19,498.118C1447.19,505.436 1453.13,511.376 1460.45,511.376L1486.97,511.376C1494.29,511.376 1500.23,505.436 1500.23,498.118L1500.23,469.914Z" style="fill:rgb(140,140,140);"/>
            </g>
            <g id="i1" transform="matrix(0.810444,0,0,0.810444,-103.508,358.916)">
                <path d="M1500.23,469.914C1500.23,462.597 1494.29,456.656 1486.97,456.656L1460.45,456.656C1453.13,456.656 1447.19,462.597 1447.19,469.914L1447.19,498.118C1447.19,505.436 1453.13,511.376 1460.45,511.376L1486.97,511.376C1494.29,511.376 1500.23,505.436 1500.23,498.118L1500.23,469.914Z" style="fill:rgb(140,140,140);"/>
            </g>
        </g>
    </g>
    <g id="economic">
        <g id="e">
            <g id="e4" transform="matrix(0.810444,0,0,0.810444,-520.246,155.713)">
                <path d="M1500.23,469.914C1500.23,462.597 1494.29,456.656 1486.97,456.656L1460.45,456.656C1453.13,456.656 1447.19,462.597 1447.19,469.914L1447.19,498.118C1447.19,505.436 1453.13,511.376 1460.45,511.376L1486.97,511.376C1494.29,511.376 1500.23,505.436 1500.23,498.118L1500.23,469.914Z" style="fill:rgb(140,140,140);"/>
            </g>
            <g id="e5" transform="matrix(0.810444,0,0,0.810444,-520.246,93.1383)">
                <path d="M1500.23,469.914C1500.23,462.597 1494.29,456.656 1486.97,456.656L1460.45,456.656C1453.13,456.656 1447.19,462.597 1447.19,469.914L1447.19,498.118C1447.19,505.436 1453.13,511.376 1460.45,511.376L1486.97,511.376C1494.29,511.376 1500.23,505.436 1500.23,498.118L1500.23,469.914Z" style="fill:rgb(140,140,140);"/>
            </g>
            <g id="e3" transform="matrix(0.810444,0,0,0.810444,-520.246,217.338)">
                <path d="M1500.23,469.914C1500.23,462.597 1494.29,456.656 1486.97,456.656L1460.45,456.656C1453.13,456.656 1447.19,462.597 1447.19,469.914L1447.19,498.118C1447.19,505.436 1453.13,511.376 1460.45,511.376L1486.97,511.376C1494.29,511.376 1500.23,505.436 1500.23,498.118L1500.23,469.914Z" style="fill:rgb(140,140,140);"/>
            </g>
            <g id="e2" transform="matrix(0.810444,0,0,0.810444,-520.246,278.963)">
                <path d="M1500.23,469.914C1500.23,462.597 1494.29,456.656 1486.97,456.656L1460.45,456.656C1453.13,456.656 1447.19,462.597 1447.19,469.914L1447.19,498.118C1447.19,505.436 1453.13,511.376 1460.45,511.376L1486.97,511.376C1494.29,511.376 1500.23,505.436 1500.23,498.118L1500.23,469.914Z" style="fill:rgb(140,140,140);"/>
            </g>
            <g id="e1" transform="matrix(0.810444,0,0,0.810444,-520.246,340.588)">
                <path d="M1500.23,469.914C1500.23,462.597 1494.29,456.656 1486.97,456.656L1460.45,456.656C1453.13,456.656 1447.19,462.597 1447.19,469.914L1447.19,498.118C1447.19,505.436 1453.13,511.376 1460.45,511.376L1486.97,511.376C1494.29,511.376 1500.23,505.436 1500.23,498.118L1500.23,469.914Z" style="fill:rgb(140,140,140);"/>
            </g>
        </g>
        <g id="f">
            <g id="f4" transform="matrix(0.810444,0,0,0.810444,-458.441,155.713)">
                <path d="M1500.23,469.914C1500.23,462.597 1494.29,456.656 1486.97,456.656L1460.45,456.656C1453.13,456.656 1447.19,462.597 1447.19,469.914L1447.19,498.118C1447.19,505.436 1453.13,511.376 1460.45,511.376L1486.97,511.376C1494.29,511.376 1500.23,505.436 1500.23,498.118L1500.23,469.914Z" style="fill:rgb(140,140,140);"/>
            </g>
            <g id="f5" transform="matrix(0.810444,0,0,0.810444,-458.441,93.1383)">
                <path d="M1500.23,469.914C1500.23,462.597 1494.29,456.656 1486.97,456.656L1460.45,456.656C1453.13,456.656 1447.19,462.597 1447.19,469.914L1447.19,498.118C1447.19,505.436 1453.13,511.376 1460.45,511.376L1486.97,511.376C1494.29,511.376 1500.23,505.436 1500.23,498.118L1500.23,469.914Z" style="fill:rgb(140,140,140);"/>
            </g>
            <g id="f3" transform="matrix(0.810444,0,0,0.810444,-458.441,217.338)">
                <path d="M1500.23,469.914C1500.23,462.597 1494.29,456.656 1486.97,456.656L1460.45,456.656C1453.13,456.656 1447.19,462.597 1447.19,469.914L1447.19,498.118C1447.19,505.436 1453.13,511.376 1460.45,511.376L1486.97,511.376C1494.29,511.376 1500.23,505.436 1500.23,498.118L1500.23,469.914Z" style="fill:rgb(140,140,140);"/>
            </g>
            <g id="f2" transform="matrix(0.810444,0,0,0.810444,-458.441,278.963)">
                <path d="M1500.23,469.914C1500.23,462.597 1494.29,456.656 1486.97,456.656L1460.45,456.656C1453.13,456.656 1447.19,462.597 1447.19,469.914L1447.19,498.118C1447.19,505.436 1453.13,511.376 1460.45,511.376L1486.97,511.376C1494.29,511.376 1500.23,505.436 1500.23,498.118L1500.23,469.914Z" style="fill:rgb(140,140,140);"/>
            </g>
            <g id="f1" transform="matrix(0.810444,0,0,0.810444,-458.441,340.588)">
                <path d="M1500.23,469.914C1500.23,462.597 1494.29,456.656 1486.97,456.656L1460.45,456.656C1453.13,456.656 1447.19,462.597 1447.19,469.914L1447.19,498.118C1447.19,505.436 1453.13,511.376 1460.45,511.376L1486.97,511.376C1494.29,511.376 1500.23,505.436 1500.23,498.118L1500.23,469.914Z" style="fill:rgb(140,140,140);"/>
            </g>
        </g>
        <g id="g">
            <g id="g4" transform="matrix(0.810444,0,0,0.810444,-395.279,155.713)">
                <path d="M1500.23,469.914C1500.23,462.597 1494.29,456.656 1486.97,456.656L1460.45,456.656C1453.13,456.656 1447.19,462.597 1447.19,469.914L1447.19,498.118C1447.19,505.436 1453.13,511.376 1460.45,511.376L1486.97,511.376C1494.29,511.376 1500.23,505.436 1500.23,498.118L1500.23,469.914Z" style="fill:rgb(140,140,140);"/>
            </g>
            <g id="g5" transform="matrix(0.810444,0,0,0.810444,-395.279,93.1383)">
                <path d="M1500.23,469.914C1500.23,462.597 1494.29,456.656 1486.97,456.656L1460.45,456.656C1453.13,456.656 1447.19,462.597 1447.19,469.914L1447.19,498.118C1447.19,505.436 1453.13,511.376 1460.45,511.376L1486.97,511.376C1494.29,511.376 1500.23,505.436 1500.23,498.118L1500.23,469.914Z" style="fill:rgb(140,140,140);"/>
            </g>
            <g id="g3" transform="matrix(0.810444,0,0,0.810444,-395.279,217.338)">
                <path d="M1500.23,469.914C1500.23,462.597 1494.29,456.656 1486.97,456.656L1460.45,456.656C1453.13,456.656 1447.19,462.597 1447.19,469.914L1447.19,498.118C1447.19,505.436 1453.13,511.376 1460.45,511.376L1486.97,511.376C1494.29,511.376 1500.23,505.436 1500.23,498.118L1500.23,469.914Z" style="fill:rgb(140,140,140);"/>
            </g>
            <g id="g2" transform="matrix(0.810444,0,0,0.810444,-395.279,278.963)">
                <path d="M1500.23,469.914C1500.23,462.597 1494.29,456.656 1486.97,456.656L1460.45,456.656C1453.13,456.656 1447.19,462.597 1447.19,469.914L1447.19,498.118C1447.19,505.436 1453.13,511.376 1460.45,511.376L1486.97,511.376C1494.29,511.376 1500.23,505.436 1500.23,498.118L1500.23,469.914Z" style="fill:rgb(140,140,140);"/>
            </g>
            <g id="g1" transform="matrix(0.810444,0,0,0.810444,-395.279,340.588)">
                <path d="M1500.23,469.914C1500.23,462.597 1494.29,456.656 1486.97,456.656L1460.45,456.656C1453.13,456.656 1447.19,462.597 1447.19,469.914L1447.19,498.118C1447.19,505.436 1453.13,511.376 1460.45,511.376L1486.97,511.376C1494.29,511.376 1500.23,505.436 1500.23,498.118L1500.23,469.914Z" style="fill:rgb(140,140,140);"/>
            </g>
        </g>
        <g id="h">
            <g id="h4" transform="matrix(0.810444,0,0,0.810444,-336.358,155.713)">
                <path d="M1500.23,469.914C1500.23,462.597 1494.29,456.656 1486.97,456.656L1460.45,456.656C1453.13,456.656 1447.19,462.597 1447.19,469.914L1447.19,498.118C1447.19,505.436 1453.13,511.376 1460.45,511.376L1486.97,511.376C1494.29,511.376 1500.23,505.436 1500.23,498.118L1500.23,469.914Z" style="fill:rgb(140,140,140);"/>
            </g>
            <g id="h5" transform="matrix(0.810444,0,0,0.810444,-336.358,93.1383)">
                <path d="M1500.23,469.914C1500.23,462.597 1494.29,456.656 1486.97,456.656L1460.45,456.656C1453.13,456.656 1447.19,462.597 1447.19,469.914L1447.19,498.118C1447.19,505.436 1453.13,511.376 1460.45,511.376L1486.97,511.376C1494.29,511.376 1500.23,505.436 1500.23,498.118L1500.23,469.914Z" style="fill:rgb(140,140,140);"/>
            </g>
            <g id="h3" transform="matrix(0.810444,0,0,0.810444,-336.358,217.338)">
                <path d="M1500.23,469.914C1500.23,462.597 1494.29,456.656 1486.97,456.656L1460.45,456.656C1453.13,456.656 1447.19,462.597 1447.19,469.914L1447.19,498.118C1447.19,505.436 1453.13,511.376 1460.45,511.376L1486.97,511.376C1494.29,511.376 1500.23,505.436 1500.23,498.118L1500.23,469.914Z" style="fill:rgb(140,140,140);"/>
            </g>
            <g id="h2" transform="matrix(0.810444,0,0,0.810444,-336.358,278.963)">
                <path d="M1500.23,469.914C1500.23,462.597 1494.29,456.656 1486.97,456.656L1460.45,456.656C1453.13,456.656 1447.19,462.597 1447.19,469.914L1447.19,498.118C1447.19,505.436 1453.13,511.376 1460.45,511.376L1486.97,511.376C1494.29,511.376 1500.23,505.436 1500.23,498.118L1500.23,469.914Z" style="fill:rgb(140,140,140);"/>
            </g>
            <g id="h1" transform="matrix(0.810444,0,0,0.810444,-336.358,340.588)">
                <path d="M1500.23,469.914C1500.23,462.597 1494.29,456.656 1486.97,456.656L1460.45,456.656C1453.13,456.656 1447.19,462.597 1447.19,469.914L1447.19,498.118C1447.19,505.436 1453.13,511.376 1460.45,511.376L1486.97,511.376C1494.29,511.376 1500.23,505.436 1500.23,498.118L1500.23,469.914Z" style="fill:rgb(140,140,140);"/>
            </g>
        </g>
        <g id="d">
            <g id="d4" transform="matrix(0.810444,0,0,0.810444,-582.675,155.086)">
                <path d="M1500.23,469.914C1500.23,462.597 1494.29,456.656 1486.97,456.656L1460.45,456.656C1453.13,456.656 1447.19,462.597 1447.19,469.914L1447.19,498.118C1447.19,505.436 1453.13,511.376 1460.45,511.376L1486.97,511.376C1494.29,511.376 1500.23,505.436 1500.23,498.118L1500.23,469.914Z" style="fill:rgb(140,140,140);"/>
            </g>
            <g id="d5" transform="matrix(0.810444,0,0,0.810444,-582.675,92.5111)">
                <path d="M1500.23,469.914C1500.23,462.597 1494.29,456.656 1486.97,456.656L1460.45,456.656C1453.13,456.656 1447.19,462.597 1447.19,469.914L1447.19,498.118C1447.19,505.436 1453.13,511.376 1460.45,511.376L1486.97,511.376C1494.29,511.376 1500.23,505.436 1500.23,498.118L1500.23,469.914Z" style="fill:rgb(140,140,140);"/>
            </g>
            <g id="d3" transform="matrix(0.810444,0,0,0.810444,-582.675,216.711)">
                <path d="M1500.23,469.914C1500.23,462.597 1494.29,456.656 1486.97,456.656L1460.45,456.656C1453.13,456.656 1447.19,462.597 1447.19,469.914L1447.19,498.118C1447.19,505.436 1453.13,511.376 1460.45,511.376L1486.97,511.376C1494.29,511.376 1500.23,505.436 1500.23,498.118L1500.23,469.914Z" style="fill:rgb(140,140,140);"/>
            </g>
            <g id="d2" transform="matrix(0.810444,0,0,0.810444,-582.675,278.336)">
                <path d="M1500.23,469.914C1500.23,462.597 1494.29,456.656 1486.97,456.656L1460.45,456.656C1453.13,456.656 1447.19,462.597 1447.19,469.914L1447.19,498.118C1447.19,505.436 1453.13,511.376 1460.45,511.376L1486.97,511.376C1494.29,511.376 1500.23,505.436 1500.23,498.118L1500.23,469.914Z" style="fill:rgb(140,140,140);"/>
            </g>
            <g id="d1" transform="matrix(0.810444,0,0,0.810444,-582.675,339.961)">
                <path d="M1500.23,469.914C1500.23,462.597 1494.29,456.656 1486.97,456.656L1460.45,456.656C1453.13,456.656 1447.19,462.597 1447.19,469.914L1447.19,498.118C1447.19,505.436 1453.13,511.376 1460.45,511.376L1486.97,511.376C1494.29,511.376 1500.23,505.436 1500.23,498.118L1500.23,469.914Z" style="fill:rgb(140,140,140);"/>
            </g>
        </g>
        <g id="c">
            <g id="c4" transform="matrix(0.810444,0,0,0.810444,-645.105,155.079)">
                <path d="M1500.23,469.914C1500.23,462.597 1494.29,456.656 1486.97,456.656L1460.45,456.656C1453.13,456.656 1447.19,462.597 1447.19,469.914L1447.19,498.118C1447.19,505.436 1453.13,511.376 1460.45,511.376L1486.97,511.376C1494.29,511.376 1500.23,505.436 1500.23,498.118L1500.23,469.914Z" style="fill:rgb(140,140,140);"/>
            </g>
            <g id="c5" transform="matrix(0.810444,0,0,0.810444,-645.105,92.5042)">
                <path d="M1500.23,469.914C1500.23,462.597 1494.29,456.656 1486.97,456.656L1460.45,456.656C1453.13,456.656 1447.19,462.597 1447.19,469.914L1447.19,498.118C1447.19,505.436 1453.13,511.376 1460.45,511.376L1486.97,511.376C1494.29,511.376 1500.23,505.436 1500.23,498.118L1500.23,469.914Z" style="fill:rgb(140,140,140);"/>
            </g>
            <g id="c3" transform="matrix(0.810444,0,0,0.810444,-645.105,216.704)">
                <path d="M1500.23,469.914C1500.23,462.597 1494.29,456.656 1486.97,456.656L1460.45,456.656C1453.13,456.656 1447.19,462.597 1447.19,469.914L1447.19,498.118C1447.19,505.436 1453.13,511.376 1460.45,511.376L1486.97,511.376C1494.29,511.376 1500.23,505.436 1500.23,498.118L1500.23,469.914Z" style="fill:rgb(140,140,140);"/>
            </g>
            <g id="c2" transform="matrix(0.810444,0,0,0.810444,-645.105,278.329)">
                <path d="M1500.23,469.914C1500.23,462.597 1494.29,456.656 1486.97,456.656L1460.45,456.656C1453.13,456.656 1447.19,462.597 1447.19,469.914L1447.19,498.118C1447.19,505.436 1453.13,511.376 1460.45,511.376L1486.97,511.376C1494.29,511.376 1500.23,505.436 1500.23,498.118L1500.23,469.914Z" style="fill:rgb(140,140,140);"/>
            </g>
            <g id="c1" transform="matrix(0.810444,0,0,0.810444,-645.105,339.954)">
                <path d="M1500.23,469.914C1500.23,462.597 1494.29,456.656 1486.97,456.656L1460.45,456.656C1453.13,456.656 1447.19,462.597 1447.19,469.914L1447.19,498.118C1447.19,505.436 1453.13,511.376 1460.45,511.376L1486.97,511.376C1494.29,511.376 1500.23,505.436 1500.23,498.118L1500.23,469.914Z" style="fill:rgb(140,140,140);"/>
            </g>
        </g>
        <g id="b">
            <g id="b4" transform="matrix(0.810444,0,0,0.810444,-707.525,155.079)">
                <path d="M1500.23,469.914C1500.23,462.597 1494.29,456.656 1486.97,456.656L1460.45,456.656C1453.13,456.656 1447.19,462.597 1447.19,469.914L1447.19,498.118C1447.19,505.436 1453.13,511.376 1460.45,511.376L1486.97,511.376C1494.29,511.376 1500.23,505.436 1500.23,498.118L1500.23,469.914Z" style="fill:rgb(140,140,140);"/>
            </g>
            <g id="b5" transform="matrix(0.810444,0,0,0.810444,-707.525,92.5042)">
                <path d="M1500.23,469.914C1500.23,462.597 1494.29,456.656 1486.97,456.656L1460.45,456.656C1453.13,456.656 1447.19,462.597 1447.19,469.914L1447.19,498.118C1447.19,505.436 1453.13,511.376 1460.45,511.376L1486.97,511.376C1494.29,511.376 1500.23,505.436 1500.23,498.118L1500.23,469.914Z" style="fill:rgb(140,140,140);"/>
            </g>
            <g id="b3" transform="matrix(0.810444,0,0,0.810444,-707.525,216.704)">
                <path d="M1500.23,469.914C1500.23,462.597 1494.29,456.656 1486.97,456.656L1460.45,456.656C1453.13,456.656 1447.19,462.597 1447.19,469.914L1447.19,498.118C1447.19,505.436 1453.13,511.376 1460.45,511.376L1486.97,511.376C1494.29,511.376 1500.23,505.436 1500.23,498.118L1500.23,469.914Z" style="fill:rgb(140,140,140);"/>
            </g>
            <g id="b2" transform="matrix(0.810444,0,0,0.810444,-707.476,278.329)">
                <path d="M1500.23,469.914C1500.23,462.597 1494.29,456.656 1486.97,456.656L1460.45,456.656C1453.13,456.656 1447.19,462.597 1447.19,469.914L1447.19,498.118C1447.19,505.436 1453.13,511.376 1460.45,511.376L1486.97,511.376C1494.29,511.376 1500.23,505.436 1500.23,498.118L1500.23,469.914Z" style="fill:rgb(140,140,140);"/>
            </g>
            <g id="b1" transform="matrix(0.810444,0,0,0.810444,-707.525,339.954)">
                <path d="M1500.23,469.914C1500.23,462.597 1494.29,456.656 1486.97,456.656L1460.45,456.656C1453.13,456.656 1447.19,462.597 1447.19,469.914L1447.19,498.118C1447.19,505.436 1453.13,511.376 1460.45,511.376L1486.97,511.376C1494.29,511.376 1500.23,505.436 1500.23,498.118L1500.23,469.914Z" style="fill:rgb(140,140,140);"/>
            </g>
        </g>
        <g id="a">
            <g id="a4" transform="matrix(0.810444,0,0,0.810444,-770.173,155.079)">
                <path d="M1500.23,469.914C1500.23,462.597 1494.29,456.656 1486.97,456.656L1460.45,456.656C1453.13,456.656 1447.19,462.597 1447.19,469.914L1447.19,498.118C1447.19,505.436 1453.13,511.376 1460.45,511.376L1486.97,511.376C1494.29,511.376 1500.23,505.436 1500.23,498.118L1500.23,469.914Z" style="fill:rgb(140,140,140);"/>
            </g>
            <g id="a5" transform="matrix(0.810444,0,0,0.810444,-770.173,92.5042)">
                <path d="M1500.23,469.914C1500.23,462.597 1494.29,456.656 1486.97,456.656L1460.45,456.656C1453.13,456.656 1447.19,462.597 1447.19,469.914L1447.19,498.118C1447.19,505.436 1453.13,511.376 1460.45,511.376L1486.97,511.376C1494.29,511.376 1500.23,505.436 1500.23,498.118L1500.23,469.914Z" style="fill:rgb(140,140,140);"/>
            </g>
            <g id="a3" transform="matrix(0.810444,0,0,0.810444,-770.173,216.704)">
                <path d="M1500.23,469.914C1500.23,462.597 1494.29,456.656 1486.97,456.656L1460.45,456.656C1453.13,456.656 1447.19,462.597 1447.19,469.914L1447.19,498.118C1447.19,505.436 1453.13,511.376 1460.45,511.376L1486.97,511.376C1494.29,511.376 1500.23,505.436 1500.23,498.118L1500.23,469.914Z" style="fill:rgb(140,140,140);"/>
            </g>
            <g id="a2" transform="matrix(0.810444,0,0,0.810444,-770.124,278.329)">
                <path d="M1500.23,469.914C1500.23,462.597 1494.29,456.656 1486.97,456.656L1460.45,456.656C1453.13,456.656 1447.19,462.597 1447.19,469.914L1447.19,498.118C1447.19,505.436 1453.13,511.376 1460.45,511.376L1486.97,511.376C1494.29,511.376 1500.23,505.436 1500.23,498.118L1500.23,469.914Z" style="fill:rgb(140,140,140);"/>
            </g>
            <g id="a1" transform="matrix(0.810444,0,0,0.810444,-770.173,339.954)">
                <path d="M1500.23,469.914C1500.23,462.597 1494.29,456.656 1486.97,456.656L1460.45,456.656C1453.13,456.656 1447.19,462.597 1447.19,469.914L1447.19,498.118C1447.19,505.436 1453.13,511.376 1460.45,511.376L1486.97,511.376C1494.29,511.376 1500.23,505.436 1500.23,498.118L1500.23,469.914Z" style="fill:rgb(140,140,140);"/>
            </g>
        </g>
    </g>
</svg>
