<?xml version="1.0" encoding="UTF-8" standalone="no"?>
<!DOCTYPE svg PUBLIC "-//W3C//DTD SVG 1.1//EN" "http://www.w3.org/Graphics/SVG/1.1/DTD/svg11.dtd">
<svg width="100%" height="100%" viewBox="0 0 1920 1200" version="1.1" xmlns="http://www.w3.org/2000/svg" xmlns:xlink="http://www.w3.org/1999/xlink" xml:space="preserve" xmlns:serif="http://www.serif.com/" style="fill-rule:evenodd;clip-rule:evenodd;stroke-linecap:round;stroke-linejoin:round;stroke-miterlimit:1.5;">
    <g id="body" transform="matrix(1.23324,0,0,0.852039,-308.579,115.185)">
        <path d="M1578.29,467.846C1578.29,406.069 1504.72,355.487 1442.94,355.487L637.893,355.487C576.117,355.487 456.408,427.196 409.898,464.211C306.695,546.346 310.105,615.459 406.777,680.299C450.598,709.691 576.117,803.214 637.893,803.214L1442.94,803.214C1504.72,803.214 1579.34,752.613 1579.34,690.836L1578.29,467.846Z" style="fill:none;stroke:black;stroke-width:2.83px;"/>
    </g>
    <g id="cockpit" transform="matrix(0.134943,0,0,0.264515,148.785,448.425)">
        <path d="M1578.29,467.846C1578.29,406.069 1504.72,355.487 1442.94,355.487L637.893,355.487C576.117,355.487 456.408,427.196 409.898,464.211C306.695,546.346 310.105,615.459 406.777,680.299C450.598,709.691 576.117,803.214 637.893,803.214L1442.94,803.214C1504.72,803.214 1579.34,752.613 1579.34,690.836L1578.29,467.846Z" style="fill:none;stroke:black;stroke-width:14.29px;"/>
    </g>
    <g id="premium">
        <g id="j">
            <g id="j3" transform="matrix(1,0,0,1,11,11)">
                <path d="M1500.23,469.914C1500.23,462.597 1494.29,456.656 1486.97,456.656L1460.45,456.656C1453.13,456.656 1447.19,462.597 1447.19,469.914L1447.19,498.118C1447.19,505.436 1453.13,511.376 1460.45,511.376L1486.97,511.376C1494.29,511.376 1500.23,505.436 1500.23,498.118L1500.23,469.914Z" style="fill:rgb(140,140,140);"/>
            </g>
            <g id="j2" transform="matrix(1,0,0,1,11,125.058)">
                <path d="M1500.23,469.914C1500.23,462.597 1494.29,456.656 1486.97,456.656L1460.45,456.656C1453.13,456.656 1447.19,462.597 1447.19,469.914L1447.19,498.118C1447.19,505.436 1453.13,511.376 1460.45,511.376L1486.97,511.376C1494.29,511.376 1500.23,505.436 1500.23,498.118L1500.23,469.914Z" style="fill:rgb(140,140,140);"/>
            </g>
            <g id="j1" transform="matrix(1,0,0,1,11,239.115)">
                <path d="M1500.23,469.914C1500.23,462.597 1494.29,456.656 1486.97,456.656L1460.45,456.656C1453.13,456.656 1447.19,462.597 1447.19,469.914L1447.19,498.118C1447.19,505.436 1453.13,511.376 1460.45,511.376L1486.97,511.376C1494.29,511.376 1500.23,505.436 1500.23,498.118L1500.23,469.914Z" style="fill:rgb(140,140,140);"/>
            </g>
        </g>
        <g id="i">
            <g id="i3" transform="matrix(1,0,0,1,-66.0313,10.2261)">
                <path d="M1500.23,469.914C1500.23,462.597 1494.29,456.656 1486.97,456.656L1460.45,456.656C1453.13,456.656 1447.19,462.597 1447.19,469.914L1447.19,498.118C1447.19,505.436 1453.13,511.376 1460.45,511.376L1486.97,511.376C1494.29,511.376 1500.23,505.436 1500.23,498.118L1500.23,469.914Z" style="fill:rgb(140,140,140);"/>
            </g>
            <g id="i2" transform="matrix(1,0,0,1,-66.0313,124.284)">
                <path d="M1500.23,469.914C1500.23,462.597 1494.29,456.656 1486.97,456.656L1460.45,456.656C1453.13,456.656 1447.19,462.597 1447.19,469.914L1447.19,498.118C1447.19,505.436 1453.13,511.376 1460.45,511.376L1486.97,511.376C1494.29,511.376 1500.23,505.436 1500.23,498.118L1500.23,469.914Z" style="fill:rgb(140,140,140);"/>
            </g>
            <g id="i1" transform="matrix(1,0,0,1,-66.0313,238.341)">
                <path d="M1500.23,469.914C1500.23,462.597 1494.29,456.656 1486.97,456.656L1460.45,456.656C1453.13,456.656 1447.19,462.597 1447.19,469.914L1447.19,498.118C1447.19,505.436 1453.13,511.376 1460.45,511.376L1486.97,511.376C1494.29,511.376 1500.23,505.436 1500.23,498.118L1500.23,469.914Z" style="fill:rgb(140,140,140);"/>
            </g>
        </g>
    </g>
    <g id="business">
        <g id="h">
            <g id="h4" transform="matrix(1,0,0,1,-294.041,11)">
                <path d="M1500.23,469.914C1500.23,462.597 1494.29,456.656 1486.97,456.656L1460.45,456.656C1453.13,456.656 1447.19,462.597 1447.19,469.914L1447.19,498.118C1447.19,505.436 1453.13,511.376 1460.45,511.376L1486.97,511.376C1494.29,511.376 1500.23,505.436 1500.23,498.118L1500.23,469.914Z" style="fill:rgb(140,140,140);"/>
            </g>
            <g id="h3" transform="matrix(1,0,0,1,-294.041,87.0384)">
                <path d="M1500.23,469.914C1500.23,462.597 1494.29,456.656 1486.97,456.656L1460.45,456.656C1453.13,456.656 1447.19,462.597 1447.19,469.914L1447.19,498.118C1447.19,505.436 1453.13,511.376 1460.45,511.376L1486.97,511.376C1494.29,511.376 1500.23,505.436 1500.23,498.118L1500.23,469.914Z" style="fill:rgb(140,140,140);"/>
            </g>
            <g id="h2" transform="matrix(1,0,0,1,-294.041,163.077)">
                <path d="M1500.23,469.914C1500.23,462.597 1494.29,456.656 1486.97,456.656L1460.45,456.656C1453.13,456.656 1447.19,462.597 1447.19,469.914L1447.19,498.118C1447.19,505.436 1453.13,511.376 1460.45,511.376L1486.97,511.376C1494.29,511.376 1500.23,505.436 1500.23,498.118L1500.23,469.914Z" style="fill:rgb(140,140,140);"/>
            </g>
            <g id="h1" transform="matrix(1,0,0,1,-294.041,239.115)">
                <path d="M1500.23,469.914C1500.23,462.597 1494.29,456.656 1486.97,456.656L1460.45,456.656C1453.13,456.656 1447.19,462.597 1447.19,469.914L1447.19,498.118C1447.19,505.436 1453.13,511.376 1460.45,511.376L1486.97,511.376C1494.29,511.376 1500.23,505.436 1500.23,498.118L1500.23,469.914Z" style="fill:rgb(140,140,140);"/>
            </g>
        </g>
        <g id="g">
            <g id="g4" transform="matrix(1,0,0,1,-371.073,10.2261)">
                <path d="M1500.23,469.914C1500.23,462.597 1494.29,456.656 1486.97,456.656L1460.45,456.656C1453.13,456.656 1447.19,462.597 1447.19,469.914L1447.19,498.118C1447.19,505.436 1453.13,511.376 1460.45,511.376L1486.97,511.376C1494.29,511.376 1500.23,505.436 1500.23,498.118L1500.23,469.914Z" style="fill:rgb(140,140,140);"/>
            </g>
            <g id="g3" transform="matrix(1,0,0,1,-371.073,86.2645)">
                <path d="M1500.23,469.914C1500.23,462.597 1494.29,456.656 1486.97,456.656L1460.45,456.656C1453.13,456.656 1447.19,462.597 1447.19,469.914L1447.19,498.118C1447.19,505.436 1453.13,511.376 1460.45,511.376L1486.97,511.376C1494.29,511.376 1500.23,505.436 1500.23,498.118L1500.23,469.914Z" style="fill:rgb(140,140,140);"/>
            </g>
            <g id="g2" transform="matrix(1,0,0,1,-371.073,162.303)">
                <path d="M1500.23,469.914C1500.23,462.597 1494.29,456.656 1486.97,456.656L1460.45,456.656C1453.13,456.656 1447.19,462.597 1447.19,469.914L1447.19,498.118C1447.19,505.436 1453.13,511.376 1460.45,511.376L1486.97,511.376C1494.29,511.376 1500.23,505.436 1500.23,498.118L1500.23,469.914Z" style="fill:rgb(140,140,140);"/>
            </g>
            <g id="g1" transform="matrix(1,0,0,1,-371.073,238.341)">
                <path d="M1500.23,469.914C1500.23,462.597 1494.29,456.656 1486.97,456.656L1460.45,456.656C1453.13,456.656 1447.19,462.597 1447.19,469.914L1447.19,498.118C1447.19,505.436 1453.13,511.376 1460.45,511.376L1486.97,511.376C1494.29,511.376 1500.23,505.436 1500.23,498.118L1500.23,469.914Z" style="fill:rgb(140,140,140);"/>
            </g>
        </g>
        <g id="f">
            <g id="f4" transform="matrix(1,0,0,1,-448.104,10.2176)">
                <path d="M1500.23,469.914C1500.23,462.597 1494.29,456.656 1486.97,456.656L1460.45,456.656C1453.13,456.656 1447.19,462.597 1447.19,469.914L1447.19,498.118C1447.19,505.436 1453.13,511.376 1460.45,511.376L1486.97,511.376C1494.29,511.376 1500.23,505.436 1500.23,498.118L1500.23,469.914Z" style="fill:rgb(140,140,140);"/>
            </g>
            <g id="f3" transform="matrix(1,0,0,1,-448.104,86.256)">
                <path d="M1500.23,469.914C1500.23,462.597 1494.29,456.656 1486.97,456.656L1460.45,456.656C1453.13,456.656 1447.19,462.597 1447.19,469.914L1447.19,498.118C1447.19,505.436 1453.13,511.376 1460.45,511.376L1486.97,511.376C1494.29,511.376 1500.23,505.436 1500.23,498.118L1500.23,469.914Z" style="fill:rgb(140,140,140);"/>
            </g>
            <g id="f2" transform="matrix(1,0,0,1,-448.104,162.294)">
                <path d="M1500.23,469.914C1500.23,462.597 1494.29,456.656 1486.97,456.656L1460.45,456.656C1453.13,456.656 1447.19,462.597 1447.19,469.914L1447.19,498.118C1447.19,505.436 1453.13,511.376 1460.45,511.376L1486.97,511.376C1494.29,511.376 1500.23,505.436 1500.23,498.118L1500.23,469.914Z" style="fill:rgb(140,140,140);"/>
            </g>
            <g id="f1" transform="matrix(1,0,0,1,-448.104,238.333)">
                <path d="M1500.23,469.914C1500.23,462.597 1494.29,456.656 1486.97,456.656L1460.45,456.656C1453.13,456.656 1447.19,462.597 1447.19,469.914L1447.19,498.118C1447.19,505.436 1453.13,511.376 1460.45,511.376L1486.97,511.376C1494.29,511.376 1500.23,505.436 1500.23,498.118L1500.23,469.914Z" style="fill:rgb(140,140,140);"/>
            </g>
        </g>
    </g>
    <g id="economic">
        <g id="e">
            <g id="e4" transform="matrix(1,0,0,1,-676.114,11)">
                <path d="M1500.23,469.914C1500.23,462.597 1494.29,456.656 1486.97,456.656L1460.45,456.656C1453.13,456.656 1447.19,462.597 1447.19,469.914L1447.19,498.118C1447.19,505.436 1453.13,511.376 1460.45,511.376L1486.97,511.376C1494.29,511.376 1500.23,505.436 1500.23,498.118L1500.23,469.914Z" style="fill:rgb(140,140,140);"/>
            </g>
            <g id="e3" transform="matrix(1,0,0,1,-676.114,87.0384)">
                <path d="M1500.23,469.914C1500.23,462.597 1494.29,456.656 1486.97,456.656L1460.45,456.656C1453.13,456.656 1447.19,462.597 1447.19,469.914L1447.19,498.118C1447.19,505.436 1453.13,511.376 1460.45,511.376L1486.97,511.376C1494.29,511.376 1500.23,505.436 1500.23,498.118L1500.23,469.914Z" style="fill:rgb(140,140,140);"/>
            </g>
            <g id="e2" transform="matrix(1,0,0,1,-676.114,163.077)">
                <path d="M1500.23,469.914C1500.23,462.597 1494.29,456.656 1486.97,456.656L1460.45,456.656C1453.13,456.656 1447.19,462.597 1447.19,469.914L1447.19,498.118C1447.19,505.436 1453.13,511.376 1460.45,511.376L1486.97,511.376C1494.29,511.376 1500.23,505.436 1500.23,498.118L1500.23,469.914Z" style="fill:rgb(140,140,140);"/>
            </g>
            <g id="e1" transform="matrix(1,0,0,1,-676.114,239.115)">
                <path d="M1500.23,469.914C1500.23,462.597 1494.29,456.656 1486.97,456.656L1460.45,456.656C1453.13,456.656 1447.19,462.597 1447.19,469.914L1447.19,498.118C1447.19,505.436 1453.13,511.376 1460.45,511.376L1486.97,511.376C1494.29,511.376 1500.23,505.436 1500.23,498.118L1500.23,469.914Z" style="fill:rgb(140,140,140);"/>
            </g>
        </g>
        <g id="d">
            <g id="d4" transform="matrix(1,0,0,1,-753.145,10.2261)">
                <path d="M1500.23,469.914C1500.23,462.597 1494.29,456.656 1486.97,456.656L1460.45,456.656C1453.13,456.656 1447.19,462.597 1447.19,469.914L1447.19,498.118C1447.19,505.436 1453.13,511.376 1460.45,511.376L1486.97,511.376C1494.29,511.376 1500.23,505.436 1500.23,498.118L1500.23,469.914Z" style="fill:rgb(140,140,140);"/>
            </g>
            <g id="d3" transform="matrix(1,0,0,1,-753.145,86.2645)">
                <path d="M1500.23,469.914C1500.23,462.597 1494.29,456.656 1486.97,456.656L1460.45,456.656C1453.13,456.656 1447.19,462.597 1447.19,469.914L1447.19,498.118C1447.19,505.436 1453.13,511.376 1460.45,511.376L1486.97,511.376C1494.29,511.376 1500.23,505.436 1500.23,498.118L1500.23,469.914Z" style="fill:rgb(140,140,140);"/>
            </g>
            <g id="d2" transform="matrix(1,0,0,1,-753.145,162.303)">
                <path d="M1500.23,469.914C1500.23,462.597 1494.29,456.656 1486.97,456.656L1460.45,456.656C1453.13,456.656 1447.19,462.597 1447.19,469.914L1447.19,498.118C1447.19,505.436 1453.13,511.376 1460.45,511.376L1486.97,511.376C1494.29,511.376 1500.23,505.436 1500.23,498.118L1500.23,469.914Z" style="fill:rgb(140,140,140);"/>
            </g>
            <g id="d1" transform="matrix(1,0,0,1,-753.145,238.341)">
                <path d="M1500.23,469.914C1500.23,462.597 1494.29,456.656 1486.97,456.656L1460.45,456.656C1453.13,456.656 1447.19,462.597 1447.19,469.914L1447.19,498.118C1447.19,505.436 1453.13,511.376 1460.45,511.376L1486.97,511.376C1494.29,511.376 1500.23,505.436 1500.23,498.118L1500.23,469.914Z" style="fill:rgb(140,140,140);"/>
            </g>
        </g>
        <g id="c">
            <g id="c4" transform="matrix(1,0,0,1,-830.177,10.2176)">
                <path d="M1500.23,469.914C1500.23,462.597 1494.29,456.656 1486.97,456.656L1460.45,456.656C1453.13,456.656 1447.19,462.597 1447.19,469.914L1447.19,498.118C1447.19,505.436 1453.13,511.376 1460.45,511.376L1486.97,511.376C1494.29,511.376 1500.23,505.436 1500.23,498.118L1500.23,469.914Z" style="fill:rgb(140,140,140);"/>
            </g>
            <g id="c3" transform="matrix(1,0,0,1,-830.177,86.256)">
                <path d="M1500.23,469.914C1500.23,462.597 1494.29,456.656 1486.97,456.656L1460.45,456.656C1453.13,456.656 1447.19,462.597 1447.19,469.914L1447.19,498.118C1447.19,505.436 1453.13,511.376 1460.45,511.376L1486.97,511.376C1494.29,511.376 1500.23,505.436 1500.23,498.118L1500.23,469.914Z" style="fill:rgb(140,140,140);"/>
            </g>
            <g id="c2" transform="matrix(1,0,0,1,-830.177,162.294)">
                <path d="M1500.23,469.914C1500.23,462.597 1494.29,456.656 1486.97,456.656L1460.45,456.656C1453.13,456.656 1447.19,462.597 1447.19,469.914L1447.19,498.118C1447.19,505.436 1453.13,511.376 1460.45,511.376L1486.97,511.376C1494.29,511.376 1500.23,505.436 1500.23,498.118L1500.23,469.914Z" style="fill:rgb(140,140,140);"/>
            </g>
            <g id="c1" transform="matrix(1,0,0,1,-830.177,238.333)">
                <path d="M1500.23,469.914C1500.23,462.597 1494.29,456.656 1486.97,456.656L1460.45,456.656C1453.13,456.656 1447.19,462.597 1447.19,469.914L1447.19,498.118C1447.19,505.436 1453.13,511.376 1460.45,511.376L1486.97,511.376C1494.29,511.376 1500.23,505.436 1500.23,498.118L1500.23,469.914Z" style="fill:rgb(140,140,140);"/>
            </g>
        </g>
        <g id="b">
            <g id="b4" transform="matrix(1,0,0,1,-907.196,10.2176)">
                <path d="M1500.23,469.914C1500.23,462.597 1494.29,456.656 1486.97,456.656L1460.45,456.656C1453.13,456.656 1447.19,462.597 1447.19,469.914L1447.19,498.118C1447.19,505.436 1453.13,511.376 1460.45,511.376L1486.97,511.376C1494.29,511.376 1500.23,505.436 1500.23,498.118L1500.23,469.914Z" style="fill:rgb(140,140,140);"/>
            </g>
            <g id="b3" transform="matrix(1,0,0,1,-907.196,86.256)">
                <path d="M1500.23,469.914C1500.23,462.597 1494.29,456.656 1486.97,456.656L1460.45,456.656C1453.13,456.656 1447.19,462.597 1447.19,469.914L1447.19,498.118C1447.19,505.436 1453.13,511.376 1460.45,511.376L1486.97,511.376C1494.29,511.376 1500.23,505.436 1500.23,498.118L1500.23,469.914Z" style="fill:rgb(140,140,140);"/>
            </g>
            <g id="b2" transform="matrix(1,0,0,1,-907.136,162.294)">
                <path d="M1500.23,469.914C1500.23,462.597 1494.29,456.656 1486.97,456.656L1460.45,456.656C1453.13,456.656 1447.19,462.597 1447.19,469.914L1447.19,498.118C1447.19,505.436 1453.13,511.376 1460.45,511.376L1486.97,511.376C1494.29,511.376 1500.23,505.436 1500.23,498.118L1500.23,469.914Z" style="fill:rgb(140,140,140);"/>
            </g>
            <g id="b1" transform="matrix(1,0,0,1,-907.196,238.333)">
                <path d="M1500.23,469.914C1500.23,462.597 1494.29,456.656 1486.97,456.656L1460.45,456.656C1453.13,456.656 1447.19,462.597 1447.19,469.914L1447.19,498.118C1447.19,505.436 1453.13,511.376 1460.45,511.376L1486.97,511.376C1494.29,511.376 1500.23,505.436 1500.23,498.118L1500.23,469.914Z" style="fill:rgb(140,140,140);"/>
            </g>
        </g>
        <g id="a">
            <g id="a4" transform="matrix(1,0,0,1,-984.497,10.2176)">
                <path d="M1500.23,469.914C1500.23,462.597 1494.29,456.656 1486.97,456.656L1460.45,456.656C1453.13,456.656 1447.19,462.597 1447.19,469.914L1447.19,498.118C1447.19,505.436 1453.13,511.376 1460.45,511.376L1486.97,511.376C1494.29,511.376 1500.23,505.436 1500.23,498.118L1500.23,469.914Z" style="fill:rgb(140,140,140);"/>
            </g>
            <g id="a3" transform="matrix(1,0,0,1,-984.497,86.256)">
                <path d="M1500.23,469.914C1500.23,462.597 1494.29,456.656 1486.97,456.656L1460.45,456.656C1453.13,456.656 1447.19,462.597 1447.19,469.914L1447.19,498.118C1447.19,505.436 1453.13,511.376 1460.45,511.376L1486.97,511.376C1494.29,511.376 1500.23,505.436 1500.23,498.118L1500.23,469.914Z" style="fill:rgb(140,140,140);"/>
            </g>
            <g id="a2" transform="matrix(1,0,0,1,-984.437,162.294)">
                <path d="M1500.23,469.914C1500.23,462.597 1494.29,456.656 1486.97,456.656L1460.45,456.656C1453.13,456.656 1447.19,462.597 1447.19,469.914L1447.19,498.118C1447.19,505.436 1453.13,511.376 1460.45,511.376L1486.97,511.376C1494.29,511.376 1500.23,505.436 1500.23,498.118L1500.23,469.914Z" style="fill:rgb(140,140,140);"/>
            </g>
            <g id="a1" transform="matrix(1,0,0,1,-984.497,238.333)">
                <path d="M1500.23,469.914C1500.23,462.597 1494.29,456.656 1486.97,456.656L1460.45,456.656C1453.13,456.656 1447.19,462.597 1447.19,469.914L1447.19,498.118C1447.19,505.436 1453.13,511.376 1460.45,511.376L1486.97,511.376C1494.29,511.376 1500.23,505.436 1500.23,498.118L1500.23,469.914Z" style="fill:rgb(140,140,140);"/>
            </g>
        </g>
    </g>
</svg>
