<?xml version="1.0" encoding="UTF-8" standalone="no"?>
<!DOCTYPE svg PUBLIC "-//W3C//DTD SVG 1.1//EN" "http://www.w3.org/Graphics/SVG/1.1/DTD/svg11.dtd">
<svg width="100%" height="100%" viewBox="0 0 1920 1200" version="1.1" xmlns="http://www.w3.org/2000/svg" xmlns:xlink="http://www.w3.org/1999/xlink" xml:space="preserve" xmlns:serif="http://www.serif.com/" style="fill-rule:evenodd;clip-rule:evenodd;stroke-linecap:round;stroke-linejoin:round;stroke-miterlimit:1.5;">
    <g id="body" transform="matrix(1.45496,0,0,0.852039,-463.486,115.185)">
        <path d="M1578.29,467.846C1578.29,406.069 1504.72,355.487 1442.94,355.487L637.893,355.487C576.117,355.487 456.408,427.196 409.898,464.211C306.695,546.346 310.105,615.459 406.777,680.299C450.598,709.691 576.117,803.214 637.893,803.214L1442.94,803.214C1504.72,803.214 1579.34,752.613 1579.34,690.836L1578.29,467.846Z" style="fill:none;stroke:black;stroke-width:2.52px;"/>
    </g>
    <g id="cockpit" transform="matrix(0.134943,0,0,0.264515,58.785,455.567)">
        <path d="M1578.29,467.846C1578.29,406.069 1504.72,355.487 1442.94,355.487L637.893,355.487C576.117,355.487 456.408,427.196 409.898,464.211C306.695,546.346 310.105,615.459 406.777,680.299C450.598,709.691 576.117,803.214 637.893,803.214L1442.94,803.214C1504.72,803.214 1579.34,752.613 1579.34,690.836L1578.29,467.846Z" style="fill:none;stroke:black;stroke-width:14.29px;"/>
    </g>
    <g id="premium">
        <g id="_14" serif:id="14">
            <g id="seat" transform="matrix(0.810444,0,0,0.810444,376.622,275.688)">
                <path d="M1500.23,469.914C1500.23,462.597 1494.29,456.656 1486.97,456.656L1460.45,456.656C1453.13,456.656 1447.19,462.597 1447.19,469.914L1447.19,498.118C1447.19,505.436 1453.13,511.376 1460.45,511.376L1486.97,511.376C1494.29,511.376 1500.23,505.436 1500.23,498.118L1500.23,469.914Z" style="fill:rgb(140,140,140);"/>
            </g>
            <g id="seat1" serif:id="seat" transform="matrix(0.810444,0,0,0.810444,376.622,88.4099)">
                <path d="M1500.23,469.914C1500.23,462.597 1494.29,456.656 1486.97,456.656L1460.45,456.656C1453.13,456.656 1447.19,462.597 1447.19,469.914L1447.19,498.118C1447.19,505.436 1453.13,511.376 1460.45,511.376L1486.97,511.376C1494.29,511.376 1500.23,505.436 1500.23,498.118L1500.23,469.914Z" style="fill:rgb(140,140,140);"/>
            </g>
            <g id="seat2" serif:id="seat" transform="matrix(0.810444,0,0,0.810444,376.622,345.439)">
                <path d="M1500.23,469.914C1500.23,462.597 1494.29,456.656 1486.97,456.656L1460.45,456.656C1453.13,456.656 1447.19,462.597 1447.19,469.914L1447.19,498.118C1447.19,505.436 1453.13,511.376 1460.45,511.376L1486.97,511.376C1494.29,511.376 1500.23,505.436 1500.23,498.118L1500.23,469.914Z" style="fill:rgb(140,140,140);"/>
            </g>
            <g id="seat3" serif:id="seat" transform="matrix(0.810444,0,0,0.810444,376.622,158.161)">
                <path d="M1500.23,469.914C1500.23,462.597 1494.29,456.656 1486.97,456.656L1460.45,456.656C1453.13,456.656 1447.19,462.597 1447.19,469.914L1447.19,498.118C1447.19,505.436 1453.13,511.376 1460.45,511.376L1486.97,511.376C1494.29,511.376 1500.23,505.436 1500.23,498.118L1500.23,469.914Z" style="fill:rgb(140,140,140);"/>
            </g>
        </g>
        <g id="_13" serif:id="13">
            <g id="seat4" serif:id="seat" transform="matrix(0.810444,0,0,0.810444,314.192,275.688)">
                <path d="M1500.23,469.914C1500.23,462.597 1494.29,456.656 1486.97,456.656L1460.45,456.656C1453.13,456.656 1447.19,462.597 1447.19,469.914L1447.19,498.118C1447.19,505.436 1453.13,511.376 1460.45,511.376L1486.97,511.376C1494.29,511.376 1500.23,505.436 1500.23,498.118L1500.23,469.914Z" style="fill:rgb(140,140,140);"/>
            </g>
            <g id="seat5" serif:id="seat" transform="matrix(0.810444,0,0,0.810444,314.192,88.4099)">
                <path d="M1500.23,469.914C1500.23,462.597 1494.29,456.656 1486.97,456.656L1460.45,456.656C1453.13,456.656 1447.19,462.597 1447.19,469.914L1447.19,498.118C1447.19,505.436 1453.13,511.376 1460.45,511.376L1486.97,511.376C1494.29,511.376 1500.23,505.436 1500.23,498.118L1500.23,469.914Z" style="fill:rgb(140,140,140);"/>
            </g>
            <g id="seat6" serif:id="seat" transform="matrix(0.810444,0,0,0.810444,314.192,344.812)">
                <path d="M1500.23,469.914C1500.23,462.597 1494.29,456.656 1486.97,456.656L1460.45,456.656C1453.13,456.656 1447.19,462.597 1447.19,469.914L1447.19,498.118C1447.19,505.436 1453.13,511.376 1460.45,511.376L1486.97,511.376C1494.29,511.376 1500.23,505.436 1500.23,498.118L1500.23,469.914Z" style="fill:rgb(140,140,140);"/>
            </g>
            <g id="seat7" serif:id="seat" transform="matrix(0.810444,0,0,0.810444,314.192,157.534)">
                <path d="M1500.23,469.914C1500.23,462.597 1494.29,456.656 1486.97,456.656L1460.45,456.656C1453.13,456.656 1447.19,462.597 1447.19,469.914L1447.19,498.118C1447.19,505.436 1453.13,511.376 1460.45,511.376L1486.97,511.376C1494.29,511.376 1500.23,505.436 1500.23,498.118L1500.23,469.914Z" style="fill:rgb(140,140,140);"/>
            </g>
        </g>
        <g id="_16" serif:id="16">
            <g id="seat8" serif:id="seat" transform="matrix(0.810444,0,0,0.810444,513.132,87.6526)">
                <path d="M1500.23,469.914C1500.23,462.597 1494.29,456.656 1486.97,456.656L1460.45,456.656C1453.13,456.656 1447.19,462.597 1447.19,469.914L1447.19,498.118C1447.19,505.436 1453.13,511.376 1460.45,511.376L1486.97,511.376C1494.29,511.376 1500.23,505.436 1500.23,498.118L1500.23,469.914Z" style="fill:rgb(140,140,140);"/>
            </g>
            <g id="seat9" serif:id="seat" transform="matrix(0.810444,0,0,0.810444,513.132,216.04)">
                <path d="M1500.23,469.914C1500.23,462.597 1494.29,456.656 1486.97,456.656L1460.45,456.656C1453.13,456.656 1447.19,462.597 1447.19,469.914L1447.19,498.118C1447.19,505.436 1453.13,511.376 1460.45,511.376L1486.97,511.376C1494.29,511.376 1500.23,505.436 1500.23,498.118L1500.23,469.914Z" style="fill:rgb(140,140,140);"/>
            </g>
            <g id="seat10" serif:id="seat" transform="matrix(0.810444,0,0,0.810444,513.132,344.427)">
                <path d="M1500.23,469.914C1500.23,462.597 1494.29,456.656 1486.97,456.656L1460.45,456.656C1453.13,456.656 1447.19,462.597 1447.19,469.914L1447.19,498.118C1447.19,505.436 1453.13,511.376 1460.45,511.376L1486.97,511.376C1494.29,511.376 1500.23,505.436 1500.23,498.118L1500.23,469.914Z" style="fill:rgb(140,140,140);"/>
            </g>
        </g>
        <g id="_15" serif:id="15">
            <g id="seat11" serif:id="seat" transform="matrix(0.810444,0,0,0.810444,450.043,87.6526)">
                <path d="M1500.23,469.914C1500.23,462.597 1494.29,456.656 1486.97,456.656L1460.45,456.656C1453.13,456.656 1447.19,462.597 1447.19,469.914L1447.19,498.118C1447.19,505.436 1453.13,511.376 1460.45,511.376L1486.97,511.376C1494.29,511.376 1500.23,505.436 1500.23,498.118L1500.23,469.914Z" style="fill:rgb(140,140,140);"/>
            </g>
            <g id="seat12" serif:id="seat" transform="matrix(0.810444,0,0,0.810444,450.043,216.04)">
                <path d="M1500.23,469.914C1500.23,462.597 1494.29,456.656 1486.97,456.656L1460.45,456.656C1453.13,456.656 1447.19,462.597 1447.19,469.914L1447.19,498.118C1447.19,505.436 1453.13,511.376 1460.45,511.376L1486.97,511.376C1494.29,511.376 1500.23,505.436 1500.23,498.118L1500.23,469.914Z" style="fill:rgb(140,140,140);"/>
            </g>
            <g id="seat13" serif:id="seat" transform="matrix(0.810444,0,0,0.810444,450.043,344.427)">
                <path d="M1500.23,469.914C1500.23,462.597 1494.29,456.656 1486.97,456.656L1460.45,456.656C1453.13,456.656 1447.19,462.597 1447.19,469.914L1447.19,498.118C1447.19,505.436 1453.13,511.376 1460.45,511.376L1486.97,511.376C1494.29,511.376 1500.23,505.436 1500.23,498.118L1500.23,469.914Z" style="fill:rgb(140,140,140);"/>
            </g>
        </g>
    </g>
    <g id="business">
        <g id="_11" serif:id="11">
            <g id="seat14" serif:id="seat" transform="matrix(0.810444,0,0,0.810444,21.3513,134.676)">
                <path d="M1500.23,469.914C1500.23,462.597 1494.29,456.656 1486.97,456.656L1460.45,456.656C1453.13,456.656 1447.19,462.597 1447.19,469.914L1447.19,498.118C1447.19,505.436 1453.13,511.376 1460.45,511.376L1486.97,511.376C1494.29,511.376 1500.23,505.436 1500.23,498.118L1500.23,469.914Z" style="fill:rgb(140,140,140);"/>
            </g>
            <g id="seat15" serif:id="seat" transform="matrix(0.810444,0,0,0.810444,21.3513,74.1758)">
                <path d="M1500.23,469.914C1500.23,462.597 1494.29,456.656 1486.97,456.656L1460.45,456.656C1453.13,456.656 1447.19,462.597 1447.19,469.914L1447.19,498.118C1447.19,505.436 1453.13,511.376 1460.45,511.376L1486.97,511.376C1494.29,511.376 1500.23,505.436 1500.23,498.118L1500.23,469.914Z" style="fill:rgb(140,140,140);"/>
            </g>
            <g id="seat16" serif:id="seat" transform="matrix(0.810444,0,0,0.810444,21.3513,236.301)">
                <path d="M1500.23,469.914C1500.23,462.597 1494.29,456.656 1486.97,456.656L1460.45,456.656C1453.13,456.656 1447.19,462.597 1447.19,469.914L1447.19,498.118C1447.19,505.436 1453.13,511.376 1460.45,511.376L1486.97,511.376C1494.29,511.376 1500.23,505.436 1500.23,498.118L1500.23,469.914Z" style="fill:rgb(140,140,140);"/>
            </g>
            <g id="seat17" serif:id="seat" transform="matrix(0.810444,0,0,0.810444,21.3513,297.925)">
                <path d="M1500.23,469.914C1500.23,462.597 1494.29,456.656 1486.97,456.656L1460.45,456.656C1453.13,456.656 1447.19,462.597 1447.19,469.914L1447.19,498.118C1447.19,505.436 1453.13,511.376 1460.45,511.376L1486.97,511.376C1494.29,511.376 1500.23,505.436 1500.23,498.118L1500.23,469.914Z" style="fill:rgb(140,140,140);"/>
            </g>
            <g id="seat18" serif:id="seat" transform="matrix(0.810444,0,0,0.810444,21.3513,359.55)">
                <path d="M1500.23,469.914C1500.23,462.597 1494.29,456.656 1486.97,456.656L1460.45,456.656C1453.13,456.656 1447.19,462.597 1447.19,469.914L1447.19,498.118C1447.19,505.436 1453.13,511.376 1460.45,511.376L1486.97,511.376C1494.29,511.376 1500.23,505.436 1500.23,498.118L1500.23,469.914Z" style="fill:rgb(140,140,140);"/>
            </g>
        </g>
        <g id="_12" serif:id="12">
            <g id="seat19" serif:id="seat" transform="matrix(0.810444,0,0,0.810444,81.3422,134.676)">
                <path d="M1500.23,469.914C1500.23,462.597 1494.29,456.656 1486.97,456.656L1460.45,456.656C1453.13,456.656 1447.19,462.597 1447.19,469.914L1447.19,498.118C1447.19,505.436 1453.13,511.376 1460.45,511.376L1486.97,511.376C1494.29,511.376 1500.23,505.436 1500.23,498.118L1500.23,469.914Z" style="fill:rgb(140,140,140);"/>
            </g>
            <g id="seat20" serif:id="seat" transform="matrix(0.810444,0,0,0.810444,81.3422,74.1758)">
                <path d="M1500.23,469.914C1500.23,462.597 1494.29,456.656 1486.97,456.656L1460.45,456.656C1453.13,456.656 1447.19,462.597 1447.19,469.914L1447.19,498.118C1447.19,505.436 1453.13,511.376 1460.45,511.376L1486.97,511.376C1494.29,511.376 1500.23,505.436 1500.23,498.118L1500.23,469.914Z" style="fill:rgb(140,140,140);"/>
            </g>
            <g id="seat21" serif:id="seat" transform="matrix(0.810444,0,0,0.810444,81.3422,236.301)">
                <path d="M1500.23,469.914C1500.23,462.597 1494.29,456.656 1486.97,456.656L1460.45,456.656C1453.13,456.656 1447.19,462.597 1447.19,469.914L1447.19,498.118C1447.19,505.436 1453.13,511.376 1460.45,511.376L1486.97,511.376C1494.29,511.376 1500.23,505.436 1500.23,498.118L1500.23,469.914Z" style="fill:rgb(140,140,140);"/>
            </g>
            <g id="seat22" serif:id="seat" transform="matrix(0.810444,0,0,0.810444,81.3422,297.925)">
                <path d="M1500.23,469.914C1500.23,462.597 1494.29,456.656 1486.97,456.656L1460.45,456.656C1453.13,456.656 1447.19,462.597 1447.19,469.914L1447.19,498.118C1447.19,505.436 1453.13,511.376 1460.45,511.376L1486.97,511.376C1494.29,511.376 1500.23,505.436 1500.23,498.118L1500.23,469.914Z" style="fill:rgb(140,140,140);"/>
            </g>
            <g id="seat23" serif:id="seat" transform="matrix(0.810444,0,0,0.810444,81.3422,359.55)">
                <path d="M1500.23,469.914C1500.23,462.597 1494.29,456.656 1486.97,456.656L1460.45,456.656C1453.13,456.656 1447.19,462.597 1447.19,469.914L1447.19,498.118C1447.19,505.436 1453.13,511.376 1460.45,511.376L1486.97,511.376C1494.29,511.376 1500.23,505.436 1500.23,498.118L1500.23,469.914Z" style="fill:rgb(140,140,140);"/>
            </g>
        </g>
        <g id="_10" serif:id="10">
            <g id="seat24" serif:id="seat" transform="matrix(0.810444,0,0,0.810444,-41.0783,134.048)">
                <path d="M1500.23,469.914C1500.23,462.597 1494.29,456.656 1486.97,456.656L1460.45,456.656C1453.13,456.656 1447.19,462.597 1447.19,469.914L1447.19,498.118C1447.19,505.436 1453.13,511.376 1460.45,511.376L1486.97,511.376C1494.29,511.376 1500.23,505.436 1500.23,498.118L1500.23,469.914Z" style="fill:rgb(140,140,140);"/>
            </g>
            <g id="seat25" serif:id="seat" transform="matrix(0.810444,0,0,0.810444,-41.0783,73.5485)">
                <path d="M1500.23,469.914C1500.23,462.597 1494.29,456.656 1486.97,456.656L1460.45,456.656C1453.13,456.656 1447.19,462.597 1447.19,469.914L1447.19,498.118C1447.19,505.436 1453.13,511.376 1460.45,511.376L1486.97,511.376C1494.29,511.376 1500.23,505.436 1500.23,498.118L1500.23,469.914Z" style="fill:rgb(140,140,140);"/>
            </g>
            <g id="seat26" serif:id="seat" transform="matrix(0.810444,0,0,0.810444,-41.0783,235.673)">
                <path d="M1500.23,469.914C1500.23,462.597 1494.29,456.656 1486.97,456.656L1460.45,456.656C1453.13,456.656 1447.19,462.597 1447.19,469.914L1447.19,498.118C1447.19,505.436 1453.13,511.376 1460.45,511.376L1486.97,511.376C1494.29,511.376 1500.23,505.436 1500.23,498.118L1500.23,469.914Z" style="fill:rgb(140,140,140);"/>
            </g>
            <g id="seat27" serif:id="seat" transform="matrix(0.810444,0,0,0.810444,-41.0783,297.298)">
                <path d="M1500.23,469.914C1500.23,462.597 1494.29,456.656 1486.97,456.656L1460.45,456.656C1453.13,456.656 1447.19,462.597 1447.19,469.914L1447.19,498.118C1447.19,505.436 1453.13,511.376 1460.45,511.376L1486.97,511.376C1494.29,511.376 1500.23,505.436 1500.23,498.118L1500.23,469.914Z" style="fill:rgb(140,140,140);"/>
            </g>
            <g id="seat28" serif:id="seat" transform="matrix(0.810444,0,0,0.810444,-41.0783,358.923)">
                <path d="M1500.23,469.914C1500.23,462.597 1494.29,456.656 1486.97,456.656L1460.45,456.656C1453.13,456.656 1447.19,462.597 1447.19,469.914L1447.19,498.118C1447.19,505.436 1453.13,511.376 1460.45,511.376L1486.97,511.376C1494.29,511.376 1500.23,505.436 1500.23,498.118L1500.23,469.914Z" style="fill:rgb(140,140,140);"/>
            </g>
        </g>
        <g id="_9" serif:id="9">
            <g id="seat29" serif:id="seat" transform="matrix(0.810444,0,0,0.810444,-103.508,134.042)">
                <path d="M1500.23,469.914C1500.23,462.597 1494.29,456.656 1486.97,456.656L1460.45,456.656C1453.13,456.656 1447.19,462.597 1447.19,469.914L1447.19,498.118C1447.19,505.436 1453.13,511.376 1460.45,511.376L1486.97,511.376C1494.29,511.376 1500.23,505.436 1500.23,498.118L1500.23,469.914Z" style="fill:rgb(140,140,140);"/>
            </g>
            <g id="seat30" serif:id="seat" transform="matrix(0.810444,0,0,0.810444,-103.508,73.5416)">
                <path d="M1500.23,469.914C1500.23,462.597 1494.29,456.656 1486.97,456.656L1460.45,456.656C1453.13,456.656 1447.19,462.597 1447.19,469.914L1447.19,498.118C1447.19,505.436 1453.13,511.376 1460.45,511.376L1486.97,511.376C1494.29,511.376 1500.23,505.436 1500.23,498.118L1500.23,469.914Z" style="fill:rgb(140,140,140);"/>
            </g>
            <g id="seat31" serif:id="seat" transform="matrix(0.810444,0,0,0.810444,-103.508,235.666)">
                <path d="M1500.23,469.914C1500.23,462.597 1494.29,456.656 1486.97,456.656L1460.45,456.656C1453.13,456.656 1447.19,462.597 1447.19,469.914L1447.19,498.118C1447.19,505.436 1453.13,511.376 1460.45,511.376L1486.97,511.376C1494.29,511.376 1500.23,505.436 1500.23,498.118L1500.23,469.914Z" style="fill:rgb(140,140,140);"/>
            </g>
            <g id="seat32" serif:id="seat" transform="matrix(0.810444,0,0,0.810444,-103.508,297.291)">
                <path d="M1500.23,469.914C1500.23,462.597 1494.29,456.656 1486.97,456.656L1460.45,456.656C1453.13,456.656 1447.19,462.597 1447.19,469.914L1447.19,498.118C1447.19,505.436 1453.13,511.376 1460.45,511.376L1486.97,511.376C1494.29,511.376 1500.23,505.436 1500.23,498.118L1500.23,469.914Z" style="fill:rgb(140,140,140);"/>
            </g>
            <g id="seat33" serif:id="seat" transform="matrix(0.810444,0,0,0.810444,-103.508,358.916)">
                <path d="M1500.23,469.914C1500.23,462.597 1494.29,456.656 1486.97,456.656L1460.45,456.656C1453.13,456.656 1447.19,462.597 1447.19,469.914L1447.19,498.118C1447.19,505.436 1453.13,511.376 1460.45,511.376L1486.97,511.376C1494.29,511.376 1500.23,505.436 1500.23,498.118L1500.23,469.914Z" style="fill:rgb(140,140,140);"/>
            </g>
        </g>
    </g>
    <g id="economic">
        <g id="_5" serif:id="5">
            <g id="seat34" serif:id="seat" transform="matrix(0.810444,0,0,0.810444,-520.246,155.713)">
                <path d="M1500.23,469.914C1500.23,462.597 1494.29,456.656 1486.97,456.656L1460.45,456.656C1453.13,456.656 1447.19,462.597 1447.19,469.914L1447.19,498.118C1447.19,505.436 1453.13,511.376 1460.45,511.376L1486.97,511.376C1494.29,511.376 1500.23,505.436 1500.23,498.118L1500.23,469.914Z" style="fill:rgb(140,140,140);"/>
            </g>
            <g id="seat35" serif:id="seat" transform="matrix(0.810444,0,0,0.810444,-520.246,93.1383)">
                <path d="M1500.23,469.914C1500.23,462.597 1494.29,456.656 1486.97,456.656L1460.45,456.656C1453.13,456.656 1447.19,462.597 1447.19,469.914L1447.19,498.118C1447.19,505.436 1453.13,511.376 1460.45,511.376L1486.97,511.376C1494.29,511.376 1500.23,505.436 1500.23,498.118L1500.23,469.914Z" style="fill:rgb(140,140,140);"/>
            </g>
            <g id="seat36" serif:id="seat" transform="matrix(0.810444,0,0,0.810444,-520.246,217.338)">
                <path d="M1500.23,469.914C1500.23,462.597 1494.29,456.656 1486.97,456.656L1460.45,456.656C1453.13,456.656 1447.19,462.597 1447.19,469.914L1447.19,498.118C1447.19,505.436 1453.13,511.376 1460.45,511.376L1486.97,511.376C1494.29,511.376 1500.23,505.436 1500.23,498.118L1500.23,469.914Z" style="fill:rgb(140,140,140);"/>
            </g>
            <g id="seat37" serif:id="seat" transform="matrix(0.810444,0,0,0.810444,-520.246,278.963)">
                <path d="M1500.23,469.914C1500.23,462.597 1494.29,456.656 1486.97,456.656L1460.45,456.656C1453.13,456.656 1447.19,462.597 1447.19,469.914L1447.19,498.118C1447.19,505.436 1453.13,511.376 1460.45,511.376L1486.97,511.376C1494.29,511.376 1500.23,505.436 1500.23,498.118L1500.23,469.914Z" style="fill:rgb(140,140,140);"/>
            </g>
            <g id="seat38" serif:id="seat" transform="matrix(0.810444,0,0,0.810444,-520.246,340.588)">
                <path d="M1500.23,469.914C1500.23,462.597 1494.29,456.656 1486.97,456.656L1460.45,456.656C1453.13,456.656 1447.19,462.597 1447.19,469.914L1447.19,498.118C1447.19,505.436 1453.13,511.376 1460.45,511.376L1486.97,511.376C1494.29,511.376 1500.23,505.436 1500.23,498.118L1500.23,469.914Z" style="fill:rgb(140,140,140);"/>
            </g>
        </g>
        <g id="_6" serif:id="6">
            <g id="seat39" serif:id="seat" transform="matrix(0.810444,0,0,0.810444,-458.441,155.713)">
                <path d="M1500.23,469.914C1500.23,462.597 1494.29,456.656 1486.97,456.656L1460.45,456.656C1453.13,456.656 1447.19,462.597 1447.19,469.914L1447.19,498.118C1447.19,505.436 1453.13,511.376 1460.45,511.376L1486.97,511.376C1494.29,511.376 1500.23,505.436 1500.23,498.118L1500.23,469.914Z" style="fill:rgb(140,140,140);"/>
            </g>
            <g id="seat40" serif:id="seat" transform="matrix(0.810444,0,0,0.810444,-458.441,93.1383)">
                <path d="M1500.23,469.914C1500.23,462.597 1494.29,456.656 1486.97,456.656L1460.45,456.656C1453.13,456.656 1447.19,462.597 1447.19,469.914L1447.19,498.118C1447.19,505.436 1453.13,511.376 1460.45,511.376L1486.97,511.376C1494.29,511.376 1500.23,505.436 1500.23,498.118L1500.23,469.914Z" style="fill:rgb(140,140,140);"/>
            </g>
            <g id="seat41" serif:id="seat" transform="matrix(0.810444,0,0,0.810444,-458.441,217.338)">
                <path d="M1500.23,469.914C1500.23,462.597 1494.29,456.656 1486.97,456.656L1460.45,456.656C1453.13,456.656 1447.19,462.597 1447.19,469.914L1447.19,498.118C1447.19,505.436 1453.13,511.376 1460.45,511.376L1486.97,511.376C1494.29,511.376 1500.23,505.436 1500.23,498.118L1500.23,469.914Z" style="fill:rgb(140,140,140);"/>
            </g>
            <g id="seat42" serif:id="seat" transform="matrix(0.810444,0,0,0.810444,-458.441,278.963)">
                <path d="M1500.23,469.914C1500.23,462.597 1494.29,456.656 1486.97,456.656L1460.45,456.656C1453.13,456.656 1447.19,462.597 1447.19,469.914L1447.19,498.118C1447.19,505.436 1453.13,511.376 1460.45,511.376L1486.97,511.376C1494.29,511.376 1500.23,505.436 1500.23,498.118L1500.23,469.914Z" style="fill:rgb(140,140,140);"/>
            </g>
            <g id="seat43" serif:id="seat" transform="matrix(0.810444,0,0,0.810444,-458.441,340.588)">
                <path d="M1500.23,469.914C1500.23,462.597 1494.29,456.656 1486.97,456.656L1460.45,456.656C1453.13,456.656 1447.19,462.597 1447.19,469.914L1447.19,498.118C1447.19,505.436 1453.13,511.376 1460.45,511.376L1486.97,511.376C1494.29,511.376 1500.23,505.436 1500.23,498.118L1500.23,469.914Z" style="fill:rgb(140,140,140);"/>
            </g>
        </g>
        <g id="_7" serif:id="7">
            <g id="seat44" serif:id="seat" transform="matrix(0.810444,0,0,0.810444,-395.279,155.713)">
                <path d="M1500.23,469.914C1500.23,462.597 1494.29,456.656 1486.97,456.656L1460.45,456.656C1453.13,456.656 1447.19,462.597 1447.19,469.914L1447.19,498.118C1447.19,505.436 1453.13,511.376 1460.45,511.376L1486.97,511.376C1494.29,511.376 1500.23,505.436 1500.23,498.118L1500.23,469.914Z" style="fill:rgb(140,140,140);"/>
            </g>
            <g id="seat45" serif:id="seat" transform="matrix(0.810444,0,0,0.810444,-395.279,93.1383)">
                <path d="M1500.23,469.914C1500.23,462.597 1494.29,456.656 1486.97,456.656L1460.45,456.656C1453.13,456.656 1447.19,462.597 1447.19,469.914L1447.19,498.118C1447.19,505.436 1453.13,511.376 1460.45,511.376L1486.97,511.376C1494.29,511.376 1500.23,505.436 1500.23,498.118L1500.23,469.914Z" style="fill:rgb(140,140,140);"/>
            </g>
            <g id="seat46" serif:id="seat" transform="matrix(0.810444,0,0,0.810444,-395.279,217.338)">
                <path d="M1500.23,469.914C1500.23,462.597 1494.29,456.656 1486.97,456.656L1460.45,456.656C1453.13,456.656 1447.19,462.597 1447.19,469.914L1447.19,498.118C1447.19,505.436 1453.13,511.376 1460.45,511.376L1486.97,511.376C1494.29,511.376 1500.23,505.436 1500.23,498.118L1500.23,469.914Z" style="fill:rgb(140,140,140);"/>
            </g>
            <g id="seat47" serif:id="seat" transform="matrix(0.810444,0,0,0.810444,-395.279,278.963)">
                <path d="M1500.23,469.914C1500.23,462.597 1494.29,456.656 1486.97,456.656L1460.45,456.656C1453.13,456.656 1447.19,462.597 1447.19,469.914L1447.19,498.118C1447.19,505.436 1453.13,511.376 1460.45,511.376L1486.97,511.376C1494.29,511.376 1500.23,505.436 1500.23,498.118L1500.23,469.914Z" style="fill:rgb(140,140,140);"/>
            </g>
            <g id="seat48" serif:id="seat" transform="matrix(0.810444,0,0,0.810444,-395.279,340.588)">
                <path d="M1500.23,469.914C1500.23,462.597 1494.29,456.656 1486.97,456.656L1460.45,456.656C1453.13,456.656 1447.19,462.597 1447.19,469.914L1447.19,498.118C1447.19,505.436 1453.13,511.376 1460.45,511.376L1486.97,511.376C1494.29,511.376 1500.23,505.436 1500.23,498.118L1500.23,469.914Z" style="fill:rgb(140,140,140);"/>
            </g>
        </g>
        <g id="_8" serif:id="8">
            <g id="seat49" serif:id="seat" transform="matrix(0.810444,0,0,0.810444,-336.358,155.713)">
                <path d="M1500.23,469.914C1500.23,462.597 1494.29,456.656 1486.97,456.656L1460.45,456.656C1453.13,456.656 1447.19,462.597 1447.19,469.914L1447.19,498.118C1447.19,505.436 1453.13,511.376 1460.45,511.376L1486.97,511.376C1494.29,511.376 1500.23,505.436 1500.23,498.118L1500.23,469.914Z" style="fill:rgb(140,140,140);"/>
            </g>
            <g id="seat50" serif:id="seat" transform="matrix(0.810444,0,0,0.810444,-336.358,93.1383)">
                <path d="M1500.23,469.914C1500.23,462.597 1494.29,456.656 1486.97,456.656L1460.45,456.656C1453.13,456.656 1447.19,462.597 1447.19,469.914L1447.19,498.118C1447.19,505.436 1453.13,511.376 1460.45,511.376L1486.97,511.376C1494.29,511.376 1500.23,505.436 1500.23,498.118L1500.23,469.914Z" style="fill:rgb(140,140,140);"/>
            </g>
            <g id="seat51" serif:id="seat" transform="matrix(0.810444,0,0,0.810444,-336.358,217.338)">
                <path d="M1500.23,469.914C1500.23,462.597 1494.29,456.656 1486.97,456.656L1460.45,456.656C1453.13,456.656 1447.19,462.597 1447.19,469.914L1447.19,498.118C1447.19,505.436 1453.13,511.376 1460.45,511.376L1486.97,511.376C1494.29,511.376 1500.23,505.436 1500.23,498.118L1500.23,469.914Z" style="fill:rgb(140,140,140);"/>
            </g>
            <g id="seat52" serif:id="seat" transform="matrix(0.810444,0,0,0.810444,-336.358,278.963)">
                <path d="M1500.23,469.914C1500.23,462.597 1494.29,456.656 1486.97,456.656L1460.45,456.656C1453.13,456.656 1447.19,462.597 1447.19,469.914L1447.19,498.118C1447.19,505.436 1453.13,511.376 1460.45,511.376L1486.97,511.376C1494.29,511.376 1500.23,505.436 1500.23,498.118L1500.23,469.914Z" style="fill:rgb(140,140,140);"/>
            </g>
            <g id="seat53" serif:id="seat" transform="matrix(0.810444,0,0,0.810444,-336.358,340.588)">
                <path d="M1500.23,469.914C1500.23,462.597 1494.29,456.656 1486.97,456.656L1460.45,456.656C1453.13,456.656 1447.19,462.597 1447.19,469.914L1447.19,498.118C1447.19,505.436 1453.13,511.376 1460.45,511.376L1486.97,511.376C1494.29,511.376 1500.23,505.436 1500.23,498.118L1500.23,469.914Z" style="fill:rgb(140,140,140);"/>
            </g>
        </g>
        <g id="_4" serif:id="4">
            <g id="seat54" serif:id="seat" transform="matrix(0.810444,0,0,0.810444,-582.675,155.086)">
                <path d="M1500.23,469.914C1500.23,462.597 1494.29,456.656 1486.97,456.656L1460.45,456.656C1453.13,456.656 1447.19,462.597 1447.19,469.914L1447.19,498.118C1447.19,505.436 1453.13,511.376 1460.45,511.376L1486.97,511.376C1494.29,511.376 1500.23,505.436 1500.23,498.118L1500.23,469.914Z" style="fill:rgb(140,140,140);"/>
            </g>
            <g id="seat55" serif:id="seat" transform="matrix(0.810444,0,0,0.810444,-582.675,92.5111)">
                <path d="M1500.23,469.914C1500.23,462.597 1494.29,456.656 1486.97,456.656L1460.45,456.656C1453.13,456.656 1447.19,462.597 1447.19,469.914L1447.19,498.118C1447.19,505.436 1453.13,511.376 1460.45,511.376L1486.97,511.376C1494.29,511.376 1500.23,505.436 1500.23,498.118L1500.23,469.914Z" style="fill:rgb(140,140,140);"/>
            </g>
            <g id="seat56" serif:id="seat" transform="matrix(0.810444,0,0,0.810444,-582.675,216.711)">
                <path d="M1500.23,469.914C1500.23,462.597 1494.29,456.656 1486.97,456.656L1460.45,456.656C1453.13,456.656 1447.19,462.597 1447.19,469.914L1447.19,498.118C1447.19,505.436 1453.13,511.376 1460.45,511.376L1486.97,511.376C1494.29,511.376 1500.23,505.436 1500.23,498.118L1500.23,469.914Z" style="fill:rgb(140,140,140);"/>
            </g>
            <g id="seat57" serif:id="seat" transform="matrix(0.810444,0,0,0.810444,-582.675,278.336)">
                <path d="M1500.23,469.914C1500.23,462.597 1494.29,456.656 1486.97,456.656L1460.45,456.656C1453.13,456.656 1447.19,462.597 1447.19,469.914L1447.19,498.118C1447.19,505.436 1453.13,511.376 1460.45,511.376L1486.97,511.376C1494.29,511.376 1500.23,505.436 1500.23,498.118L1500.23,469.914Z" style="fill:rgb(140,140,140);"/>
            </g>
            <g id="seat58" serif:id="seat" transform="matrix(0.810444,0,0,0.810444,-582.675,339.961)">
                <path d="M1500.23,469.914C1500.23,462.597 1494.29,456.656 1486.97,456.656L1460.45,456.656C1453.13,456.656 1447.19,462.597 1447.19,469.914L1447.19,498.118C1447.19,505.436 1453.13,511.376 1460.45,511.376L1486.97,511.376C1494.29,511.376 1500.23,505.436 1500.23,498.118L1500.23,469.914Z" style="fill:rgb(140,140,140);"/>
            </g>
        </g>
        <g id="_3" serif:id="3">
            <g id="seat59" serif:id="seat" transform="matrix(0.810444,0,0,0.810444,-645.105,155.079)">
                <path d="M1500.23,469.914C1500.23,462.597 1494.29,456.656 1486.97,456.656L1460.45,456.656C1453.13,456.656 1447.19,462.597 1447.19,469.914L1447.19,498.118C1447.19,505.436 1453.13,511.376 1460.45,511.376L1486.97,511.376C1494.29,511.376 1500.23,505.436 1500.23,498.118L1500.23,469.914Z" style="fill:rgb(140,140,140);"/>
            </g>
            <g id="seat60" serif:id="seat" transform="matrix(0.810444,0,0,0.810444,-645.105,92.5042)">
                <path d="M1500.23,469.914C1500.23,462.597 1494.29,456.656 1486.97,456.656L1460.45,456.656C1453.13,456.656 1447.19,462.597 1447.19,469.914L1447.19,498.118C1447.19,505.436 1453.13,511.376 1460.45,511.376L1486.97,511.376C1494.29,511.376 1500.23,505.436 1500.23,498.118L1500.23,469.914Z" style="fill:rgb(140,140,140);"/>
            </g>
            <g id="seat61" serif:id="seat" transform="matrix(0.810444,0,0,0.810444,-645.105,216.704)">
                <path d="M1500.23,469.914C1500.23,462.597 1494.29,456.656 1486.97,456.656L1460.45,456.656C1453.13,456.656 1447.19,462.597 1447.19,469.914L1447.19,498.118C1447.19,505.436 1453.13,511.376 1460.45,511.376L1486.97,511.376C1494.29,511.376 1500.23,505.436 1500.23,498.118L1500.23,469.914Z" style="fill:rgb(140,140,140);"/>
            </g>
            <g id="seat62" serif:id="seat" transform="matrix(0.810444,0,0,0.810444,-645.105,278.329)">
                <path d="M1500.23,469.914C1500.23,462.597 1494.29,456.656 1486.97,456.656L1460.45,456.656C1453.13,456.656 1447.19,462.597 1447.19,469.914L1447.19,498.118C1447.19,505.436 1453.13,511.376 1460.45,511.376L1486.97,511.376C1494.29,511.376 1500.23,505.436 1500.23,498.118L1500.23,469.914Z" style="fill:rgb(140,140,140);"/>
            </g>
            <g id="seat63" serif:id="seat" transform="matrix(0.810444,0,0,0.810444,-645.105,339.954)">
                <path d="M1500.23,469.914C1500.23,462.597 1494.29,456.656 1486.97,456.656L1460.45,456.656C1453.13,456.656 1447.19,462.597 1447.19,469.914L1447.19,498.118C1447.19,505.436 1453.13,511.376 1460.45,511.376L1486.97,511.376C1494.29,511.376 1500.23,505.436 1500.23,498.118L1500.23,469.914Z" style="fill:rgb(140,140,140);"/>
            </g>
        </g>
        <g id="_2" serif:id="2">
            <g id="seat64" serif:id="seat" transform="matrix(0.810444,0,0,0.810444,-707.525,155.079)">
                <path d="M1500.23,469.914C1500.23,462.597 1494.29,456.656 1486.97,456.656L1460.45,456.656C1453.13,456.656 1447.19,462.597 1447.19,469.914L1447.19,498.118C1447.19,505.436 1453.13,511.376 1460.45,511.376L1486.97,511.376C1494.29,511.376 1500.23,505.436 1500.23,498.118L1500.23,469.914Z" style="fill:rgb(140,140,140);"/>
            </g>
            <g id="seat65" serif:id="seat" transform="matrix(0.810444,0,0,0.810444,-707.525,92.5042)">
                <path d="M1500.23,469.914C1500.23,462.597 1494.29,456.656 1486.97,456.656L1460.45,456.656C1453.13,456.656 1447.19,462.597 1447.19,469.914L1447.19,498.118C1447.19,505.436 1453.13,511.376 1460.45,511.376L1486.97,511.376C1494.29,511.376 1500.23,505.436 1500.23,498.118L1500.23,469.914Z" style="fill:rgb(140,140,140);"/>
            </g>
            <g id="seat66" serif:id="seat" transform="matrix(0.810444,0,0,0.810444,-707.525,216.704)">
                <path d="M1500.23,469.914C1500.23,462.597 1494.29,456.656 1486.97,456.656L1460.45,456.656C1453.13,456.656 1447.19,462.597 1447.19,469.914L1447.19,498.118C1447.19,505.436 1453.13,511.376 1460.45,511.376L1486.97,511.376C1494.29,511.376 1500.23,505.436 1500.23,498.118L1500.23,469.914Z" style="fill:rgb(140,140,140);"/>
            </g>
            <g id="seat67" serif:id="seat" transform="matrix(0.810444,0,0,0.810444,-707.476,278.329)">
                <path d="M1500.23,469.914C1500.23,462.597 1494.29,456.656 1486.97,456.656L1460.45,456.656C1453.13,456.656 1447.19,462.597 1447.19,469.914L1447.19,498.118C1447.19,505.436 1453.13,511.376 1460.45,511.376L1486.97,511.376C1494.29,511.376 1500.23,505.436 1500.23,498.118L1500.23,469.914Z" style="fill:rgb(140,140,140);"/>
            </g>
            <g id="seat68" serif:id="seat" transform="matrix(0.810444,0,0,0.810444,-707.525,339.954)">
                <path d="M1500.23,469.914C1500.23,462.597 1494.29,456.656 1486.97,456.656L1460.45,456.656C1453.13,456.656 1447.19,462.597 1447.19,469.914L1447.19,498.118C1447.19,505.436 1453.13,511.376 1460.45,511.376L1486.97,511.376C1494.29,511.376 1500.23,505.436 1500.23,498.118L1500.23,469.914Z" style="fill:rgb(140,140,140);"/>
            </g>
        </g>
        <g id="_1" serif:id="1">
            <g id="seat69" serif:id="seat" transform="matrix(0.810444,0,0,0.810444,-770.173,155.079)">
                <path d="M1500.23,469.914C1500.23,462.597 1494.29,456.656 1486.97,456.656L1460.45,456.656C1453.13,456.656 1447.19,462.597 1447.19,469.914L1447.19,498.118C1447.19,505.436 1453.13,511.376 1460.45,511.376L1486.97,511.376C1494.29,511.376 1500.23,505.436 1500.23,498.118L1500.23,469.914Z" style="fill:rgb(140,140,140);"/>
            </g>
            <g id="seat70" serif:id="seat" transform="matrix(0.810444,0,0,0.810444,-770.173,92.5042)">
                <path d="M1500.23,469.914C1500.23,462.597 1494.29,456.656 1486.97,456.656L1460.45,456.656C1453.13,456.656 1447.19,462.597 1447.19,469.914L1447.19,498.118C1447.19,505.436 1453.13,511.376 1460.45,511.376L1486.97,511.376C1494.29,511.376 1500.23,505.436 1500.23,498.118L1500.23,469.914Z" style="fill:rgb(140,140,140);"/>
            </g>
            <g id="seat71" serif:id="seat" transform="matrix(0.810444,0,0,0.810444,-770.173,216.704)">
                <path d="M1500.23,469.914C1500.23,462.597 1494.29,456.656 1486.97,456.656L1460.45,456.656C1453.13,456.656 1447.19,462.597 1447.19,469.914L1447.19,498.118C1447.19,505.436 1453.13,511.376 1460.45,511.376L1486.97,511.376C1494.29,511.376 1500.23,505.436 1500.23,498.118L1500.23,469.914Z" style="fill:rgb(140,140,140);"/>
            </g>
            <g id="seat72" serif:id="seat" transform="matrix(0.810444,0,0,0.810444,-770.124,278.329)">
                <path d="M1500.23,469.914C1500.23,462.597 1494.29,456.656 1486.97,456.656L1460.45,456.656C1453.13,456.656 1447.19,462.597 1447.19,469.914L1447.19,498.118C1447.19,505.436 1453.13,511.376 1460.45,511.376L1486.97,511.376C1494.29,511.376 1500.23,505.436 1500.23,498.118L1500.23,469.914Z" style="fill:rgb(140,140,140);"/>
            </g>
            <g id="seat73" serif:id="seat" transform="matrix(0.810444,0,0,0.810444,-770.173,339.954)">
                <path d="M1500.23,469.914C1500.23,462.597 1494.29,456.656 1486.97,456.656L1460.45,456.656C1453.13,456.656 1447.19,462.597 1447.19,469.914L1447.19,498.118C1447.19,505.436 1453.13,511.376 1460.45,511.376L1486.97,511.376C1494.29,511.376 1500.23,505.436 1500.23,498.118L1500.23,469.914Z" style="fill:rgb(140,140,140);"/>
            </g>
        </g>
    </g>
</svg>
