<?xml version="1.0" encoding="UTF-8" standalone="no"?>
<!DOCTYPE svg PUBLIC "-//W3C//DTD SVG 1.1//EN" "http://www.w3.org/Graphics/SVG/1.1/DTD/svg11.dtd">
<svg width="100%" height="100%" viewBox="0 0 1920 1200" version="1.1" xmlns="http://www.w3.org/2000/svg" xmlns:xlink="http://www.w3.org/1999/xlink" xml:space="preserve" xmlns:serif="http://www.serif.com/" style="fill-rule:evenodd;clip-rule:evenodd;stroke-linecap:round;stroke-linejoin:round;stroke-miterlimit:1.5;">
    <g id="body" transform="matrix(1.45496,0,0,0.852039,-463.486,115.185)">
        <path d="M1578.29,467.846C1578.29,406.069 1504.72,355.487 1442.94,355.487L637.893,355.487C576.117,355.487 456.408,427.196 409.898,464.211C306.695,546.346 310.105,615.459 406.777,680.299C450.598,709.691 576.117,803.214 637.893,803.214L1442.94,803.214C1504.72,803.214 1579.34,752.613 1579.34,690.836L1578.29,467.846Z" style="fill:none;stroke:black;stroke-width:2.52px;"/>
    </g>
    <g id="cockpit" transform="matrix(0.134943,0,0,0.264515,58.785,455.567)">
        <path d="M1578.29,467.846C1578.29,406.069 1504.72,355.487 1442.94,355.487L637.893,355.487C576.117,355.487 456.408,427.196 409.898,464.211C306.695,546.346 310.105,615.459 406.777,680.299C450.598,709.691 576.117,803.214 637.893,803.214L1442.94,803.214C1504.72,803.214 1579.34,752.613 1579.34,690.836L1578.29,467.846Z" style="fill:none;stroke:black;stroke-width:14.29px;"/>
    </g>
    <g id="premium">
        <g id="_2" serif:id="2">
            <g id="seat" transform="matrix(0.624119,0,0,0.624119,652.617,390.251)">
                <path d="M1500.23,469.914C1500.23,462.597 1494.29,456.656 1486.97,456.656L1460.45,456.656C1453.13,456.656 1447.19,462.597 1447.19,469.914L1447.19,498.118C1447.19,505.436 1453.13,511.376 1460.45,511.376L1486.97,511.376C1494.29,511.376 1500.23,505.436 1500.23,498.118L1500.23,469.914Z" style="fill:rgb(140,140,140);"/>
            </g>
            <g id="seat1" serif:id="seat" transform="matrix(0.624119,0,0,0.624119,652.617,166.029)">
                <path d="M1500.23,469.914C1500.23,462.597 1494.29,456.656 1486.97,456.656L1460.45,456.656C1453.13,456.656 1447.19,462.597 1447.19,469.914L1447.19,498.118C1447.19,505.436 1453.13,511.376 1460.45,511.376L1486.97,511.376C1494.29,511.376 1500.23,505.436 1500.23,498.118L1500.23,469.914Z" style="fill:rgb(140,140,140);"/>
            </g>
            <g id="seat2" serif:id="seat" transform="matrix(0.624119,0,0,0.624119,652.617,443.966)">
                <path d="M1500.23,469.914C1500.23,462.597 1494.29,456.656 1486.97,456.656L1460.45,456.656C1453.13,456.656 1447.19,462.597 1447.19,469.914L1447.19,498.118C1447.19,505.436 1453.13,511.376 1460.45,511.376L1486.97,511.376C1494.29,511.376 1500.23,505.436 1500.23,498.118L1500.23,469.914Z" style="fill:rgb(140,140,140);"/>
            </g>
            <g id="seat3" serif:id="seat" transform="matrix(0.624119,0,0,0.624119,652.617,219.744)">
                <path d="M1500.23,469.914C1500.23,462.597 1494.29,456.656 1486.97,456.656L1460.45,456.656C1453.13,456.656 1447.19,462.597 1447.19,469.914L1447.19,498.118C1447.19,505.436 1453.13,511.376 1460.45,511.376L1486.97,511.376C1494.29,511.376 1500.23,505.436 1500.23,498.118L1500.23,469.914Z" style="fill:rgb(140,140,140);"/>
            </g>
        </g>
        <g id="_1" serif:id="1">
            <g id="seat4" serif:id="seat" transform="matrix(0.624119,0,0,0.624119,604.54,390.251)">
                <path d="M1500.23,469.914C1500.23,462.597 1494.29,456.656 1486.97,456.656L1460.45,456.656C1453.13,456.656 1447.19,462.597 1447.19,469.914L1447.19,498.118C1447.19,505.436 1453.13,511.376 1460.45,511.376L1486.97,511.376C1494.29,511.376 1500.23,505.436 1500.23,498.118L1500.23,469.914Z" style="fill:rgb(140,140,140);"/>
            </g>
            <g id="seat5" serif:id="seat" transform="matrix(0.624119,0,0,0.624119,604.54,166.029)">
                <path d="M1500.23,469.914C1500.23,462.597 1494.29,456.656 1486.97,456.656L1460.45,456.656C1453.13,456.656 1447.19,462.597 1447.19,469.914L1447.19,498.118C1447.19,505.436 1453.13,511.376 1460.45,511.376L1486.97,511.376C1494.29,511.376 1500.23,505.436 1500.23,498.118L1500.23,469.914Z" style="fill:rgb(140,140,140);"/>
            </g>
            <g id="seat6" serif:id="seat" transform="matrix(0.624119,0,0,0.624119,604.54,443.483)">
                <path d="M1500.23,469.914C1500.23,462.597 1494.29,456.656 1486.97,456.656L1460.45,456.656C1453.13,456.656 1447.19,462.597 1447.19,469.914L1447.19,498.118C1447.19,505.436 1453.13,511.376 1460.45,511.376L1486.97,511.376C1494.29,511.376 1500.23,505.436 1500.23,498.118L1500.23,469.914Z" style="fill:rgb(140,140,140);"/>
            </g>
            <g id="seat7" serif:id="seat" transform="matrix(0.624119,0,0,0.624119,604.54,219.261)">
                <path d="M1500.23,469.914C1500.23,462.597 1494.29,456.656 1486.97,456.656L1460.45,456.656C1453.13,456.656 1447.19,462.597 1447.19,469.914L1447.19,498.118C1447.19,505.436 1453.13,511.376 1460.45,511.376L1486.97,511.376C1494.29,511.376 1500.23,505.436 1500.23,498.118L1500.23,469.914Z" style="fill:rgb(140,140,140);"/>
            </g>
        </g>
        <g id="_4" serif:id="4">
            <g id="seat8" serif:id="seat" transform="matrix(0.624119,0,0,0.624119,777.743,165.446)">
                <path d="M1500.23,469.914C1500.23,462.597 1494.29,456.656 1486.97,456.656L1460.45,456.656C1453.13,456.656 1447.19,462.597 1447.19,469.914L1447.19,498.118C1447.19,505.436 1453.13,511.376 1460.45,511.376L1486.97,511.376C1494.29,511.376 1500.23,505.436 1500.23,498.118L1500.23,469.914Z" style="fill:rgb(140,140,140);"/>
            </g>
            <g id="seat9" serif:id="seat" transform="matrix(0.624119,0,0,0.624119,777.743,350.606)">
                <path d="M1500.23,469.914C1500.23,462.597 1494.29,456.656 1486.97,456.656L1460.45,456.656C1453.13,456.656 1447.19,462.597 1447.19,469.914L1447.19,498.118C1447.19,505.436 1453.13,511.376 1460.45,511.376L1486.97,511.376C1494.29,511.376 1500.23,505.436 1500.23,498.118L1500.23,469.914Z" style="fill:rgb(140,140,140);"/>
            </g>
            <g id="seat10" serif:id="seat" transform="matrix(0.624119,0,0,0.624119,777.743,258.026)">
                <path d="M1500.23,469.914C1500.23,462.597 1494.29,456.656 1486.97,456.656L1460.45,456.656C1453.13,456.656 1447.19,462.597 1447.19,469.914L1447.19,498.118C1447.19,505.436 1453.13,511.376 1460.45,511.376L1486.97,511.376C1494.29,511.376 1500.23,505.436 1500.23,498.118L1500.23,469.914Z" style="fill:rgb(140,140,140);"/>
            </g>
            <g id="seat11" serif:id="seat" transform="matrix(0.624119,0,0,0.624119,777.743,443.186)">
                <path d="M1500.23,469.914C1500.23,462.597 1494.29,456.656 1486.97,456.656L1460.45,456.656C1453.13,456.656 1447.19,462.597 1447.19,469.914L1447.19,498.118C1447.19,505.436 1453.13,511.376 1460.45,511.376L1486.97,511.376C1494.29,511.376 1500.23,505.436 1500.23,498.118L1500.23,469.914Z" style="fill:rgb(140,140,140);"/>
            </g>
        </g>
        <g id="_3" serif:id="3">
            <g id="seat12" serif:id="seat" transform="matrix(0.624119,0,0,0.624119,729.158,165.446)">
                <path d="M1500.23,469.914C1500.23,462.597 1494.29,456.656 1486.97,456.656L1460.45,456.656C1453.13,456.656 1447.19,462.597 1447.19,469.914L1447.19,498.118C1447.19,505.436 1453.13,511.376 1460.45,511.376L1486.97,511.376C1494.29,511.376 1500.23,505.436 1500.23,498.118L1500.23,469.914Z" style="fill:rgb(140,140,140);"/>
            </g>
            <g id="seat13" serif:id="seat" transform="matrix(0.624119,0,0,0.624119,729.158,350.606)">
                <path d="M1500.23,469.914C1500.23,462.597 1494.29,456.656 1486.97,456.656L1460.45,456.656C1453.13,456.656 1447.19,462.597 1447.19,469.914L1447.19,498.118C1447.19,505.436 1453.13,511.376 1460.45,511.376L1486.97,511.376C1494.29,511.376 1500.23,505.436 1500.23,498.118L1500.23,469.914Z" style="fill:rgb(140,140,140);"/>
            </g>
            <g id="seat14" serif:id="seat" transform="matrix(0.624119,0,0,0.624119,729.158,258.026)">
                <path d="M1500.23,469.914C1500.23,462.597 1494.29,456.656 1486.97,456.656L1460.45,456.656C1453.13,456.656 1447.19,462.597 1447.19,469.914L1447.19,498.118C1447.19,505.436 1453.13,511.376 1460.45,511.376L1486.97,511.376C1494.29,511.376 1500.23,505.436 1500.23,498.118L1500.23,469.914Z" style="fill:rgb(140,140,140);"/>
            </g>
            <g id="seat15" serif:id="seat" transform="matrix(0.624119,0,0,0.624119,729.158,443.186)">
                <path d="M1500.23,469.914C1500.23,462.597 1494.29,456.656 1486.97,456.656L1460.45,456.656C1453.13,456.656 1447.19,462.597 1447.19,469.914L1447.19,498.118C1447.19,505.436 1453.13,511.376 1460.45,511.376L1486.97,511.376C1494.29,511.376 1500.23,505.436 1500.23,498.118L1500.23,469.914Z" style="fill:rgb(140,140,140);"/>
            </g>
        </g>
    </g>
    <g id="business">
        <g id="_21" serif:id="2">
            <g id="seat16" serif:id="seat" transform="matrix(0.624119,0,0,0.624119,305.224,217.067)">
                <path d="M1500.23,469.914C1500.23,462.597 1494.29,456.656 1486.97,456.656L1460.45,456.656C1453.13,456.656 1447.19,462.597 1447.19,469.914L1447.19,498.118C1447.19,505.436 1453.13,511.376 1460.45,511.376L1486.97,511.376C1494.29,511.376 1500.23,505.436 1500.23,498.118L1500.23,469.914Z" style="fill:rgb(140,140,140);"/>
            </g>
            <g id="seat17" serif:id="seat" transform="matrix(0.624119,0,0,0.624119,305.224,217.067)">
                <path d="M1500.23,469.914C1500.23,462.597 1494.29,456.656 1486.97,456.656L1460.45,456.656C1453.13,456.656 1447.19,462.597 1447.19,469.914L1447.19,498.118C1447.19,505.436 1453.13,511.376 1460.45,511.376L1486.97,511.376C1494.29,511.376 1500.23,505.436 1500.23,498.118L1500.23,469.914Z" style="fill:rgb(140,140,140);"/>
            </g>
            <g id="seat18" serif:id="seat" transform="matrix(0.624119,0,0,0.624119,305.892,163.832)">
                <path d="M1500.23,469.914C1500.23,462.597 1494.29,456.656 1486.97,456.656L1460.45,456.656C1453.13,456.656 1447.19,462.597 1447.19,469.914L1447.19,498.118C1447.19,505.436 1453.13,511.376 1460.45,511.376L1486.97,511.376C1494.29,511.376 1500.23,505.436 1500.23,498.118L1500.23,469.914Z" style="fill:rgb(140,140,140);"/>
            </g>
            <g id="seat19" serif:id="seat" transform="matrix(0.624119,0,0,0.624119,305.892,163.832)">
                <path d="M1500.23,469.914C1500.23,462.597 1494.29,456.656 1486.97,456.656L1460.45,456.656C1453.13,456.656 1447.19,462.597 1447.19,469.914L1447.19,498.118C1447.19,505.436 1453.13,511.376 1460.45,511.376L1486.97,511.376C1494.29,511.376 1500.23,505.436 1500.23,498.118L1500.23,469.914Z" style="fill:rgb(140,140,140);"/>
            </g>
            <g id="seat20" serif:id="seat" transform="matrix(0.624119,0,0,0.624119,305.224,344.95)">
                <path d="M1500.23,469.914C1500.23,462.597 1494.29,456.656 1486.97,456.656L1460.45,456.656C1453.13,456.656 1447.19,462.597 1447.19,469.914L1447.19,498.118C1447.19,505.436 1453.13,511.376 1460.45,511.376L1486.97,511.376C1494.29,511.376 1500.23,505.436 1500.23,498.118L1500.23,469.914Z" style="fill:rgb(140,140,140);"/>
            </g>
            <g id="seat21" serif:id="seat" transform="matrix(0.624119,0,0,0.624119,305.224,344.95)">
                <path d="M1500.23,469.914C1500.23,462.597 1494.29,456.656 1486.97,456.656L1460.45,456.656C1453.13,456.656 1447.19,462.597 1447.19,469.914L1447.19,498.118C1447.19,505.436 1453.13,511.376 1460.45,511.376L1486.97,511.376C1494.29,511.376 1500.23,505.436 1500.23,498.118L1500.23,469.914Z" style="fill:rgb(140,140,140);"/>
            </g>
            <g id="seat22" serif:id="seat" transform="matrix(0.624119,0,0,0.624119,305.224,399.891)">
                <path d="M1500.23,469.914C1500.23,462.597 1494.29,456.656 1486.97,456.656L1460.45,456.656C1453.13,456.656 1447.19,462.597 1447.19,469.914L1447.19,498.118C1447.19,505.436 1453.13,511.376 1460.45,511.376L1486.97,511.376C1494.29,511.376 1500.23,505.436 1500.23,498.118L1500.23,469.914Z" style="fill:rgb(140,140,140);"/>
            </g>
            <g id="seat23" serif:id="seat" transform="matrix(0.624119,0,0,0.624119,305.224,399.891)">
                <path d="M1500.23,469.914C1500.23,462.597 1494.29,456.656 1486.97,456.656L1460.45,456.656C1453.13,456.656 1447.19,462.597 1447.19,469.914L1447.19,498.118C1447.19,505.436 1453.13,511.376 1460.45,511.376L1486.97,511.376C1494.29,511.376 1500.23,505.436 1500.23,498.118L1500.23,469.914Z" style="fill:rgb(140,140,140);"/>
            </g>
            <g id="seat24" serif:id="seat" transform="matrix(0.624119,0,0,0.624119,305.224,454.833)">
                <path d="M1500.23,469.914C1500.23,462.597 1494.29,456.656 1486.97,456.656L1460.45,456.656C1453.13,456.656 1447.19,462.597 1447.19,469.914L1447.19,498.118C1447.19,505.436 1453.13,511.376 1460.45,511.376L1486.97,511.376C1494.29,511.376 1500.23,505.436 1500.23,498.118L1500.23,469.914Z" style="fill:rgb(140,140,140);"/>
            </g>
            <g id="seat25" serif:id="seat" transform="matrix(0.624119,0,0,0.624119,305.224,454.833)">
                <path d="M1500.23,469.914C1500.23,462.597 1494.29,456.656 1486.97,456.656L1460.45,456.656C1453.13,456.656 1447.19,462.597 1447.19,469.914L1447.19,498.118C1447.19,505.436 1453.13,511.376 1460.45,511.376L1486.97,511.376C1494.29,511.376 1500.23,505.436 1500.23,498.118L1500.23,469.914Z" style="fill:rgb(140,140,140);"/>
            </g>
        </g>
        <g id="_11" serif:id="1">
            <g id="seat26" serif:id="seat" transform="matrix(0.624119,0,0,0.624119,258.937,217.067)">
                <path d="M1500.23,469.914C1500.23,462.597 1494.29,456.656 1486.97,456.656L1460.45,456.656C1453.13,456.656 1447.19,462.597 1447.19,469.914L1447.19,498.118C1447.19,505.436 1453.13,511.376 1460.45,511.376L1486.97,511.376C1494.29,511.376 1500.23,505.436 1500.23,498.118L1500.23,469.914Z" style="fill:rgb(140,140,140);"/>
            </g>
            <g id="seat27" serif:id="seat" transform="matrix(0.624119,0,0,0.624119,259.605,163.832)">
                <path d="M1500.23,469.914C1500.23,462.597 1494.29,456.656 1486.97,456.656L1460.45,456.656C1453.13,456.656 1447.19,462.597 1447.19,469.914L1447.19,498.118C1447.19,505.436 1453.13,511.376 1460.45,511.376L1486.97,511.376C1494.29,511.376 1500.23,505.436 1500.23,498.118L1500.23,469.914Z" style="fill:rgb(140,140,140);"/>
            </g>
            <g id="seat28" serif:id="seat" transform="matrix(0.624119,0,0,0.624119,258.937,344.95)">
                <path d="M1500.23,469.914C1500.23,462.597 1494.29,456.656 1486.97,456.656L1460.45,456.656C1453.13,456.656 1447.19,462.597 1447.19,469.914L1447.19,498.118C1447.19,505.436 1453.13,511.376 1460.45,511.376L1486.97,511.376C1494.29,511.376 1500.23,505.436 1500.23,498.118L1500.23,469.914Z" style="fill:rgb(140,140,140);"/>
            </g>
            <g id="seat29" serif:id="seat" transform="matrix(0.624119,0,0,0.624119,258.937,399.891)">
                <path d="M1500.23,469.914C1500.23,462.597 1494.29,456.656 1486.97,456.656L1460.45,456.656C1453.13,456.656 1447.19,462.597 1447.19,469.914L1447.19,498.118C1447.19,505.436 1453.13,511.376 1460.45,511.376L1486.97,511.376C1494.29,511.376 1500.23,505.436 1500.23,498.118L1500.23,469.914Z" style="fill:rgb(140,140,140);"/>
            </g>
            <g id="seat30" serif:id="seat" transform="matrix(0.624119,0,0,0.624119,258.937,454.833)">
                <path d="M1500.23,469.914C1500.23,462.597 1494.29,456.656 1486.97,456.656L1460.45,456.656C1453.13,456.656 1447.19,462.597 1447.19,469.914L1447.19,498.118C1447.19,505.436 1453.13,511.376 1460.45,511.376L1486.97,511.376C1494.29,511.376 1500.23,505.436 1500.23,498.118L1500.23,469.914Z" style="fill:rgb(140,140,140);"/>
            </g>
        </g>
        <g id="_31" serif:id="3">
            <g id="seat31" serif:id="seat" transform="matrix(0.624119,0,0,0.624119,354.258,217.067)">
                <path d="M1500.23,469.914C1500.23,462.597 1494.29,456.656 1486.97,456.656L1460.45,456.656C1453.13,456.656 1447.19,462.597 1447.19,469.914L1447.19,498.118C1447.19,505.436 1453.13,511.376 1460.45,511.376L1486.97,511.376C1494.29,511.376 1500.23,505.436 1500.23,498.118L1500.23,469.914Z" style="fill:rgb(140,140,140);"/>
            </g>
            <g id="seat32" serif:id="seat" transform="matrix(0.624119,0,0,0.624119,354.927,163.832)">
                <path d="M1500.23,469.914C1500.23,462.597 1494.29,456.656 1486.97,456.656L1460.45,456.656C1453.13,456.656 1447.19,462.597 1447.19,469.914L1447.19,498.118C1447.19,505.436 1453.13,511.376 1460.45,511.376L1486.97,511.376C1494.29,511.376 1500.23,505.436 1500.23,498.118L1500.23,469.914Z" style="fill:rgb(140,140,140);"/>
            </g>
            <g id="seat33" serif:id="seat" transform="matrix(0.624119,0,0,0.624119,354.258,344.95)">
                <path d="M1500.23,469.914C1500.23,462.597 1494.29,456.656 1486.97,456.656L1460.45,456.656C1453.13,456.656 1447.19,462.597 1447.19,469.914L1447.19,498.118C1447.19,505.436 1453.13,511.376 1460.45,511.376L1486.97,511.376C1494.29,511.376 1500.23,505.436 1500.23,498.118L1500.23,469.914Z" style="fill:rgb(140,140,140);"/>
            </g>
            <g id="seat34" serif:id="seat" transform="matrix(0.624119,0,0,0.624119,354.258,399.891)">
                <path d="M1500.23,469.914C1500.23,462.597 1494.29,456.656 1486.97,456.656L1460.45,456.656C1453.13,456.656 1447.19,462.597 1447.19,469.914L1447.19,498.118C1447.19,505.436 1453.13,511.376 1460.45,511.376L1486.97,511.376C1494.29,511.376 1500.23,505.436 1500.23,498.118L1500.23,469.914Z" style="fill:rgb(140,140,140);"/>
            </g>
            <g id="seat35" serif:id="seat" transform="matrix(0.624119,0,0,0.624119,354.258,454.833)">
                <path d="M1500.23,469.914C1500.23,462.597 1494.29,456.656 1486.97,456.656L1460.45,456.656C1453.13,456.656 1447.19,462.597 1447.19,469.914L1447.19,498.118C1447.19,505.436 1453.13,511.376 1460.45,511.376L1486.97,511.376C1494.29,511.376 1500.23,505.436 1500.23,498.118L1500.23,469.914Z" style="fill:rgb(140,140,140);"/>
            </g>
        </g>
        <g id="_41" serif:id="4">
            <g id="seat36" serif:id="seat" transform="matrix(0.624119,0,0,0.624119,403.647,217.067)">
                <path d="M1500.23,469.914C1500.23,462.597 1494.29,456.656 1486.97,456.656L1460.45,456.656C1453.13,456.656 1447.19,462.597 1447.19,469.914L1447.19,498.118C1447.19,505.436 1453.13,511.376 1460.45,511.376L1486.97,511.376C1494.29,511.376 1500.23,505.436 1500.23,498.118L1500.23,469.914Z" style="fill:rgb(140,140,140);"/>
            </g>
            <g id="seat37" serif:id="seat" transform="matrix(0.624119,0,0,0.624119,404.316,163.832)">
                <path d="M1500.23,469.914C1500.23,462.597 1494.29,456.656 1486.97,456.656L1460.45,456.656C1453.13,456.656 1447.19,462.597 1447.19,469.914L1447.19,498.118C1447.19,505.436 1453.13,511.376 1460.45,511.376L1486.97,511.376C1494.29,511.376 1500.23,505.436 1500.23,498.118L1500.23,469.914Z" style="fill:rgb(140,140,140);"/>
            </g>
            <g id="seat38" serif:id="seat" transform="matrix(0.624119,0,0,0.624119,403.647,344.95)">
                <path d="M1500.23,469.914C1500.23,462.597 1494.29,456.656 1486.97,456.656L1460.45,456.656C1453.13,456.656 1447.19,462.597 1447.19,469.914L1447.19,498.118C1447.19,505.436 1453.13,511.376 1460.45,511.376L1486.97,511.376C1494.29,511.376 1500.23,505.436 1500.23,498.118L1500.23,469.914Z" style="fill:rgb(140,140,140);"/>
            </g>
            <g id="seat39" serif:id="seat" transform="matrix(0.624119,0,0,0.624119,403.647,399.891)">
                <path d="M1500.23,469.914C1500.23,462.597 1494.29,456.656 1486.97,456.656L1460.45,456.656C1453.13,456.656 1447.19,462.597 1447.19,469.914L1447.19,498.118C1447.19,505.436 1453.13,511.376 1460.45,511.376L1486.97,511.376C1494.29,511.376 1500.23,505.436 1500.23,498.118L1500.23,469.914Z" style="fill:rgb(140,140,140);"/>
            </g>
            <g id="seat40" serif:id="seat" transform="matrix(0.624119,0,0,0.624119,403.647,454.833)">
                <path d="M1500.23,469.914C1500.23,462.597 1494.29,456.656 1486.97,456.656L1460.45,456.656C1453.13,456.656 1447.19,462.597 1447.19,469.914L1447.19,498.118C1447.19,505.436 1453.13,511.376 1460.45,511.376L1486.97,511.376C1494.29,511.376 1500.23,505.436 1500.23,498.118L1500.23,469.914Z" style="fill:rgb(140,140,140);"/>
            </g>
        </g>
        <g id="_5" serif:id="5">
            <g id="seat41" serif:id="seat" transform="matrix(0.624119,0,0,0.624119,450.338,217.067)">
                <path d="M1500.23,469.914C1500.23,462.597 1494.29,456.656 1486.97,456.656L1460.45,456.656C1453.13,456.656 1447.19,462.597 1447.19,469.914L1447.19,498.118C1447.19,505.436 1453.13,511.376 1460.45,511.376L1486.97,511.376C1494.29,511.376 1500.23,505.436 1500.23,498.118L1500.23,469.914Z" style="fill:rgb(140,140,140);"/>
            </g>
            <g id="seat42" serif:id="seat" transform="matrix(0.624119,0,0,0.624119,451.006,163.832)">
                <path d="M1500.23,469.914C1500.23,462.597 1494.29,456.656 1486.97,456.656L1460.45,456.656C1453.13,456.656 1447.19,462.597 1447.19,469.914L1447.19,498.118C1447.19,505.436 1453.13,511.376 1460.45,511.376L1486.97,511.376C1494.29,511.376 1500.23,505.436 1500.23,498.118L1500.23,469.914Z" style="fill:rgb(140,140,140);"/>
            </g>
            <g id="seat43" serif:id="seat" transform="matrix(0.624119,0,0,0.624119,450.338,344.95)">
                <path d="M1500.23,469.914C1500.23,462.597 1494.29,456.656 1486.97,456.656L1460.45,456.656C1453.13,456.656 1447.19,462.597 1447.19,469.914L1447.19,498.118C1447.19,505.436 1453.13,511.376 1460.45,511.376L1486.97,511.376C1494.29,511.376 1500.23,505.436 1500.23,498.118L1500.23,469.914Z" style="fill:rgb(140,140,140);"/>
            </g>
            <g id="seat44" serif:id="seat" transform="matrix(0.624119,0,0,0.624119,450.338,399.891)">
                <path d="M1500.23,469.914C1500.23,462.597 1494.29,456.656 1486.97,456.656L1460.45,456.656C1453.13,456.656 1447.19,462.597 1447.19,469.914L1447.19,498.118C1447.19,505.436 1453.13,511.376 1460.45,511.376L1486.97,511.376C1494.29,511.376 1500.23,505.436 1500.23,498.118L1500.23,469.914Z" style="fill:rgb(140,140,140);"/>
            </g>
            <g id="seat45" serif:id="seat" transform="matrix(0.624119,0,0,0.624119,450.338,454.833)">
                <path d="M1500.23,469.914C1500.23,462.597 1494.29,456.656 1486.97,456.656L1460.45,456.656C1453.13,456.656 1447.19,462.597 1447.19,469.914L1447.19,498.118C1447.19,505.436 1453.13,511.376 1460.45,511.376L1486.97,511.376C1494.29,511.376 1500.23,505.436 1500.23,498.118L1500.23,469.914Z" style="fill:rgb(140,140,140);"/>
            </g>
        </g>
    </g>
    <g id="economic">
        <g id="_51" serif:id="5">
            <g id="seat46" serif:id="seat" transform="matrix(0.624119,0,0,0.624119,-308.056,257.859)">
                <path d="M1500.23,469.914C1500.23,462.597 1494.29,456.656 1486.97,456.656L1460.45,456.656C1453.13,456.656 1447.19,462.597 1447.19,469.914L1447.19,498.118C1447.19,505.436 1453.13,511.376 1460.45,511.376L1486.97,511.376C1494.29,511.376 1500.23,505.436 1500.23,498.118L1500.23,469.914Z" style="fill:rgb(140,140,140);"/>
            </g>
            <g id="seat47" serif:id="seat" transform="matrix(0.624119,0,0,0.624119,-308.056,209.67)">
                <path d="M1500.23,469.914C1500.23,462.597 1494.29,456.656 1486.97,456.656L1460.45,456.656C1453.13,456.656 1447.19,462.597 1447.19,469.914L1447.19,498.118C1447.19,505.436 1453.13,511.376 1460.45,511.376L1486.97,511.376C1494.29,511.376 1500.23,505.436 1500.23,498.118L1500.23,469.914Z" style="fill:rgb(140,140,140);"/>
            </g>
            <g id="seat48" serif:id="seat" transform="matrix(0.624119,0,0,0.624119,-308.056,162.045)">
                <path d="M1500.23,469.914C1500.23,462.597 1494.29,456.656 1486.97,456.656L1460.45,456.656C1453.13,456.656 1447.19,462.597 1447.19,469.914L1447.19,498.118C1447.19,505.436 1453.13,511.376 1460.45,511.376L1486.97,511.376C1494.29,511.376 1500.23,505.436 1500.23,498.118L1500.23,469.914Z" style="fill:rgb(140,140,140);"/>
            </g>
            <g id="seat49" serif:id="seat" transform="matrix(0.624119,0,0,0.624119,-308.056,365.316)">
                <path d="M1500.23,469.914C1500.23,462.597 1494.29,456.656 1486.97,456.656L1460.45,456.656C1453.13,456.656 1447.19,462.597 1447.19,469.914L1447.19,498.118C1447.19,505.436 1453.13,511.376 1460.45,511.376L1486.97,511.376C1494.29,511.376 1500.23,505.436 1500.23,498.118L1500.23,469.914Z" style="fill:rgb(140,140,140);"/>
            </g>
            <g id="seat50" serif:id="seat" transform="matrix(0.624119,0,0,0.624119,-308.056,412.773)">
                <path d="M1500.23,469.914C1500.23,462.597 1494.29,456.656 1486.97,456.656L1460.45,456.656C1453.13,456.656 1447.19,462.597 1447.19,469.914L1447.19,498.118C1447.19,505.436 1453.13,511.376 1460.45,511.376L1486.97,511.376C1494.29,511.376 1500.23,505.436 1500.23,498.118L1500.23,469.914Z" style="fill:rgb(140,140,140);"/>
            </g>
            <g id="seat51" serif:id="seat" transform="matrix(0.624119,0,0,0.624119,-308.056,460.23)">
                <path d="M1500.23,469.914C1500.23,462.597 1494.29,456.656 1486.97,456.656L1460.45,456.656C1453.13,456.656 1447.19,462.597 1447.19,469.914L1447.19,498.118C1447.19,505.436 1453.13,511.376 1460.45,511.376L1486.97,511.376C1494.29,511.376 1500.23,505.436 1500.23,498.118L1500.23,469.914Z" style="fill:rgb(140,140,140);"/>
            </g>
        </g>
        <g id="_6" serif:id="6">
            <g id="seat52" serif:id="seat" transform="matrix(0.624119,0,0,0.624119,-260.461,257.859)">
                <path d="M1500.23,469.914C1500.23,462.597 1494.29,456.656 1486.97,456.656L1460.45,456.656C1453.13,456.656 1447.19,462.597 1447.19,469.914L1447.19,498.118C1447.19,505.436 1453.13,511.376 1460.45,511.376L1486.97,511.376C1494.29,511.376 1500.23,505.436 1500.23,498.118L1500.23,469.914Z" style="fill:rgb(140,140,140);"/>
            </g>
            <g id="seat53" serif:id="seat" transform="matrix(0.624119,0,0,0.624119,-260.461,209.67)">
                <path d="M1500.23,469.914C1500.23,462.597 1494.29,456.656 1486.97,456.656L1460.45,456.656C1453.13,456.656 1447.19,462.597 1447.19,469.914L1447.19,498.118C1447.19,505.436 1453.13,511.376 1460.45,511.376L1486.97,511.376C1494.29,511.376 1500.23,505.436 1500.23,498.118L1500.23,469.914Z" style="fill:rgb(140,140,140);"/>
            </g>
            <g id="seat54" serif:id="seat" transform="matrix(0.624119,0,0,0.624119,-260.461,162.045)">
                <path d="M1500.23,469.914C1500.23,462.597 1494.29,456.656 1486.97,456.656L1460.45,456.656C1453.13,456.656 1447.19,462.597 1447.19,469.914L1447.19,498.118C1447.19,505.436 1453.13,511.376 1460.45,511.376L1486.97,511.376C1494.29,511.376 1500.23,505.436 1500.23,498.118L1500.23,469.914Z" style="fill:rgb(140,140,140);"/>
            </g>
            <g id="seat55" serif:id="seat" transform="matrix(0.624119,0,0,0.624119,-260.461,365.316)">
                <path d="M1500.23,469.914C1500.23,462.597 1494.29,456.656 1486.97,456.656L1460.45,456.656C1453.13,456.656 1447.19,462.597 1447.19,469.914L1447.19,498.118C1447.19,505.436 1453.13,511.376 1460.45,511.376L1486.97,511.376C1494.29,511.376 1500.23,505.436 1500.23,498.118L1500.23,469.914Z" style="fill:rgb(140,140,140);"/>
            </g>
            <g id="seat56" serif:id="seat" transform="matrix(0.624119,0,0,0.624119,-260.461,412.773)">
                <path d="M1500.23,469.914C1500.23,462.597 1494.29,456.656 1486.97,456.656L1460.45,456.656C1453.13,456.656 1447.19,462.597 1447.19,469.914L1447.19,498.118C1447.19,505.436 1453.13,511.376 1460.45,511.376L1486.97,511.376C1494.29,511.376 1500.23,505.436 1500.23,498.118L1500.23,469.914Z" style="fill:rgb(140,140,140);"/>
            </g>
            <g id="seat57" serif:id="seat" transform="matrix(0.624119,0,0,0.624119,-260.461,460.23)">
                <path d="M1500.23,469.914C1500.23,462.597 1494.29,456.656 1486.97,456.656L1460.45,456.656C1453.13,456.656 1447.19,462.597 1447.19,469.914L1447.19,498.118C1447.19,505.436 1453.13,511.376 1460.45,511.376L1486.97,511.376C1494.29,511.376 1500.23,505.436 1500.23,498.118L1500.23,469.914Z" style="fill:rgb(140,140,140);"/>
            </g>
        </g>
        <g id="_7" serif:id="7">
            <g id="seat58" serif:id="seat" transform="matrix(0.624119,0,0,0.624119,-171.82,257.859)">
                <path d="M1500.23,469.914C1500.23,462.597 1494.29,456.656 1486.97,456.656L1460.45,456.656C1453.13,456.656 1447.19,462.597 1447.19,469.914L1447.19,498.118C1447.19,505.436 1453.13,511.376 1460.45,511.376L1486.97,511.376C1494.29,511.376 1500.23,505.436 1500.23,498.118L1500.23,469.914Z" style="fill:rgb(140,140,140);"/>
            </g>
            <g id="seat59" serif:id="seat" transform="matrix(0.624119,0,0,0.624119,-171.82,209.67)">
                <path d="M1500.23,469.914C1500.23,462.597 1494.29,456.656 1486.97,456.656L1460.45,456.656C1453.13,456.656 1447.19,462.597 1447.19,469.914L1447.19,498.118C1447.19,505.436 1453.13,511.376 1460.45,511.376L1486.97,511.376C1494.29,511.376 1500.23,505.436 1500.23,498.118L1500.23,469.914Z" style="fill:rgb(140,140,140);"/>
            </g>
            <g id="seat60" serif:id="seat" transform="matrix(0.624119,0,0,0.624119,-171.82,162.045)">
                <path d="M1500.23,469.914C1500.23,462.597 1494.29,456.656 1486.97,456.656L1460.45,456.656C1453.13,456.656 1447.19,462.597 1447.19,469.914L1447.19,498.118C1447.19,505.436 1453.13,511.376 1460.45,511.376L1486.97,511.376C1494.29,511.376 1500.23,505.436 1500.23,498.118L1500.23,469.914Z" style="fill:rgb(140,140,140);"/>
            </g>
            <g id="seat61" serif:id="seat" transform="matrix(0.624119,0,0,0.624119,-171.82,365.316)">
                <path d="M1500.23,469.914C1500.23,462.597 1494.29,456.656 1486.97,456.656L1460.45,456.656C1453.13,456.656 1447.19,462.597 1447.19,469.914L1447.19,498.118C1447.19,505.436 1453.13,511.376 1460.45,511.376L1486.97,511.376C1494.29,511.376 1500.23,505.436 1500.23,498.118L1500.23,469.914Z" style="fill:rgb(140,140,140);"/>
            </g>
            <g id="seat62" serif:id="seat" transform="matrix(0.624119,0,0,0.624119,-171.82,412.773)">
                <path d="M1500.23,469.914C1500.23,462.597 1494.29,456.656 1486.97,456.656L1460.45,456.656C1453.13,456.656 1447.19,462.597 1447.19,469.914L1447.19,498.118C1447.19,505.436 1453.13,511.376 1460.45,511.376L1486.97,511.376C1494.29,511.376 1500.23,505.436 1500.23,498.118L1500.23,469.914Z" style="fill:rgb(140,140,140);"/>
            </g>
            <g id="seat63" serif:id="seat" transform="matrix(0.624119,0,0,0.624119,-171.82,460.23)">
                <path d="M1500.23,469.914C1500.23,462.597 1494.29,456.656 1486.97,456.656L1460.45,456.656C1453.13,456.656 1447.19,462.597 1447.19,469.914L1447.19,498.118C1447.19,505.436 1453.13,511.376 1460.45,511.376L1486.97,511.376C1494.29,511.376 1500.23,505.436 1500.23,498.118L1500.23,469.914Z" style="fill:rgb(140,140,140);"/>
            </g>
        </g>
        <g id="_9" serif:id="9">
            <g id="seat64" serif:id="seat" transform="matrix(0.624119,0,0,0.624119,-79.6208,257.859)">
                <path d="M1500.23,469.914C1500.23,462.597 1494.29,456.656 1486.97,456.656L1460.45,456.656C1453.13,456.656 1447.19,462.597 1447.19,469.914L1447.19,498.118C1447.19,505.436 1453.13,511.376 1460.45,511.376L1486.97,511.376C1494.29,511.376 1500.23,505.436 1500.23,498.118L1500.23,469.914Z" style="fill:rgb(140,140,140);"/>
            </g>
            <g id="seat65" serif:id="seat" transform="matrix(0.624119,0,0,0.624119,-79.6208,209.67)">
                <path d="M1500.23,469.914C1500.23,462.597 1494.29,456.656 1486.97,456.656L1460.45,456.656C1453.13,456.656 1447.19,462.597 1447.19,469.914L1447.19,498.118C1447.19,505.436 1453.13,511.376 1460.45,511.376L1486.97,511.376C1494.29,511.376 1500.23,505.436 1500.23,498.118L1500.23,469.914Z" style="fill:rgb(140,140,140);"/>
            </g>
            <g id="seat66" serif:id="seat" transform="matrix(0.624119,0,0,0.624119,-79.6208,162.045)">
                <path d="M1500.23,469.914C1500.23,462.597 1494.29,456.656 1486.97,456.656L1460.45,456.656C1453.13,456.656 1447.19,462.597 1447.19,469.914L1447.19,498.118C1447.19,505.436 1453.13,511.376 1460.45,511.376L1486.97,511.376C1494.29,511.376 1500.23,505.436 1500.23,498.118L1500.23,469.914Z" style="fill:rgb(140,140,140);"/>
            </g>
            <g id="seat67" serif:id="seat" transform="matrix(0.624119,0,0,0.624119,-79.6208,365.316)">
                <path d="M1500.23,469.914C1500.23,462.597 1494.29,456.656 1486.97,456.656L1460.45,456.656C1453.13,456.656 1447.19,462.597 1447.19,469.914L1447.19,498.118C1447.19,505.436 1453.13,511.376 1460.45,511.376L1486.97,511.376C1494.29,511.376 1500.23,505.436 1500.23,498.118L1500.23,469.914Z" style="fill:rgb(140,140,140);"/>
            </g>
            <g id="seat68" serif:id="seat" transform="matrix(0.624119,0,0,0.624119,-79.6208,412.773)">
                <path d="M1500.23,469.914C1500.23,462.597 1494.29,456.656 1486.97,456.656L1460.45,456.656C1453.13,456.656 1447.19,462.597 1447.19,469.914L1447.19,498.118C1447.19,505.436 1453.13,511.376 1460.45,511.376L1486.97,511.376C1494.29,511.376 1500.23,505.436 1500.23,498.118L1500.23,469.914Z" style="fill:rgb(140,140,140);"/>
            </g>
            <g id="seat69" serif:id="seat" transform="matrix(0.624119,0,0,0.624119,-79.6208,460.23)">
                <path d="M1500.23,469.914C1500.23,462.597 1494.29,456.656 1486.97,456.656L1460.45,456.656C1453.13,456.656 1447.19,462.597 1447.19,469.914L1447.19,498.118C1447.19,505.436 1453.13,511.376 1460.45,511.376L1486.97,511.376C1494.29,511.376 1500.23,505.436 1500.23,498.118L1500.23,469.914Z" style="fill:rgb(140,140,140);"/>
            </g>
        </g>
        <g id="_8" serif:id="8">
            <g id="seat70" serif:id="seat" transform="matrix(0.624119,0,0,0.624119,-126.445,257.859)">
                <path d="M1500.23,469.914C1500.23,462.597 1494.29,456.656 1486.97,456.656L1460.45,456.656C1453.13,456.656 1447.19,462.597 1447.19,469.914L1447.19,498.118C1447.19,505.436 1453.13,511.376 1460.45,511.376L1486.97,511.376C1494.29,511.376 1500.23,505.436 1500.23,498.118L1500.23,469.914Z" style="fill:rgb(140,140,140);"/>
            </g>
            <g id="seat71" serif:id="seat" transform="matrix(0.624119,0,0,0.624119,-126.445,209.67)">
                <path d="M1500.23,469.914C1500.23,462.597 1494.29,456.656 1486.97,456.656L1460.45,456.656C1453.13,456.656 1447.19,462.597 1447.19,469.914L1447.19,498.118C1447.19,505.436 1453.13,511.376 1460.45,511.376L1486.97,511.376C1494.29,511.376 1500.23,505.436 1500.23,498.118L1500.23,469.914Z" style="fill:rgb(140,140,140);"/>
            </g>
            <g id="seat72" serif:id="seat" transform="matrix(0.624119,0,0,0.624119,-126.445,162.045)">
                <path d="M1500.23,469.914C1500.23,462.597 1494.29,456.656 1486.97,456.656L1460.45,456.656C1453.13,456.656 1447.19,462.597 1447.19,469.914L1447.19,498.118C1447.19,505.436 1453.13,511.376 1460.45,511.376L1486.97,511.376C1494.29,511.376 1500.23,505.436 1500.23,498.118L1500.23,469.914Z" style="fill:rgb(140,140,140);"/>
            </g>
            <g id="seat73" serif:id="seat" transform="matrix(0.624119,0,0,0.624119,-126.445,365.316)">
                <path d="M1500.23,469.914C1500.23,462.597 1494.29,456.656 1486.97,456.656L1460.45,456.656C1453.13,456.656 1447.19,462.597 1447.19,469.914L1447.19,498.118C1447.19,505.436 1453.13,511.376 1460.45,511.376L1486.97,511.376C1494.29,511.376 1500.23,505.436 1500.23,498.118L1500.23,469.914Z" style="fill:rgb(140,140,140);"/>
            </g>
            <g id="seat74" serif:id="seat" transform="matrix(0.624119,0,0,0.624119,-126.445,412.773)">
                <path d="M1500.23,469.914C1500.23,462.597 1494.29,456.656 1486.97,456.656L1460.45,456.656C1453.13,456.656 1447.19,462.597 1447.19,469.914L1447.19,498.118C1447.19,505.436 1453.13,511.376 1460.45,511.376L1486.97,511.376C1494.29,511.376 1500.23,505.436 1500.23,498.118L1500.23,469.914Z" style="fill:rgb(140,140,140);"/>
            </g>
            <g id="seat75" serif:id="seat" transform="matrix(0.624119,0,0,0.624119,-126.445,460.23)">
                <path d="M1500.23,469.914C1500.23,462.597 1494.29,456.656 1486.97,456.656L1460.45,456.656C1453.13,456.656 1447.19,462.597 1447.19,469.914L1447.19,498.118C1447.19,505.436 1453.13,511.376 1460.45,511.376L1486.97,511.376C1494.29,511.376 1500.23,505.436 1500.23,498.118L1500.23,469.914Z" style="fill:rgb(140,140,140);"/>
            </g>
        </g>
        <g id="_10" serif:id="10">
            <g id="seat76" serif:id="seat" transform="matrix(0.624119,0,0,0.624119,-34.2462,257.859)">
                <path d="M1500.23,469.914C1500.23,462.597 1494.29,456.656 1486.97,456.656L1460.45,456.656C1453.13,456.656 1447.19,462.597 1447.19,469.914L1447.19,498.118C1447.19,505.436 1453.13,511.376 1460.45,511.376L1486.97,511.376C1494.29,511.376 1500.23,505.436 1500.23,498.118L1500.23,469.914Z" style="fill:rgb(140,140,140);"/>
            </g>
            <g id="seat77" serif:id="seat" transform="matrix(0.624119,0,0,0.624119,-34.2462,209.67)">
                <path d="M1500.23,469.914C1500.23,462.597 1494.29,456.656 1486.97,456.656L1460.45,456.656C1453.13,456.656 1447.19,462.597 1447.19,469.914L1447.19,498.118C1447.19,505.436 1453.13,511.376 1460.45,511.376L1486.97,511.376C1494.29,511.376 1500.23,505.436 1500.23,498.118L1500.23,469.914Z" style="fill:rgb(140,140,140);"/>
            </g>
            <g id="seat78" serif:id="seat" transform="matrix(0.624119,0,0,0.624119,-34.2462,162.045)">
                <path d="M1500.23,469.914C1500.23,462.597 1494.29,456.656 1486.97,456.656L1460.45,456.656C1453.13,456.656 1447.19,462.597 1447.19,469.914L1447.19,498.118C1447.19,505.436 1453.13,511.376 1460.45,511.376L1486.97,511.376C1494.29,511.376 1500.23,505.436 1500.23,498.118L1500.23,469.914Z" style="fill:rgb(140,140,140);"/>
            </g>
            <g id="seat79" serif:id="seat" transform="matrix(0.624119,0,0,0.624119,-34.2462,365.316)">
                <path d="M1500.23,469.914C1500.23,462.597 1494.29,456.656 1486.97,456.656L1460.45,456.656C1453.13,456.656 1447.19,462.597 1447.19,469.914L1447.19,498.118C1447.19,505.436 1453.13,511.376 1460.45,511.376L1486.97,511.376C1494.29,511.376 1500.23,505.436 1500.23,498.118L1500.23,469.914Z" style="fill:rgb(140,140,140);"/>
            </g>
            <g id="seat80" serif:id="seat" transform="matrix(0.624119,0,0,0.624119,-34.2462,412.773)">
                <path d="M1500.23,469.914C1500.23,462.597 1494.29,456.656 1486.97,456.656L1460.45,456.656C1453.13,456.656 1447.19,462.597 1447.19,469.914L1447.19,498.118C1447.19,505.436 1453.13,511.376 1460.45,511.376L1486.97,511.376C1494.29,511.376 1500.23,505.436 1500.23,498.118L1500.23,469.914Z" style="fill:rgb(140,140,140);"/>
            </g>
            <g id="seat81" serif:id="seat" transform="matrix(0.624119,0,0,0.624119,-34.2462,460.23)">
                <path d="M1500.23,469.914C1500.23,462.597 1494.29,456.656 1486.97,456.656L1460.45,456.656C1453.13,456.656 1447.19,462.597 1447.19,469.914L1447.19,498.118C1447.19,505.436 1453.13,511.376 1460.45,511.376L1486.97,511.376C1494.29,511.376 1500.23,505.436 1500.23,498.118L1500.23,469.914Z" style="fill:rgb(140,140,140);"/>
            </g>
        </g>
        <g id="_111" serif:id="11">
            <g id="seat82" serif:id="seat" transform="matrix(0.624119,0,0,0.624119,8.18549,257.859)">
                <path d="M1500.23,469.914C1500.23,462.597 1494.29,456.656 1486.97,456.656L1460.45,456.656C1453.13,456.656 1447.19,462.597 1447.19,469.914L1447.19,498.118C1447.19,505.436 1453.13,511.376 1460.45,511.376L1486.97,511.376C1494.29,511.376 1500.23,505.436 1500.23,498.118L1500.23,469.914Z" style="fill:rgb(140,140,140);"/>
            </g>
            <g id="seat83" serif:id="seat" transform="matrix(0.624119,0,0,0.624119,8.18549,209.67)">
                <path d="M1500.23,469.914C1500.23,462.597 1494.29,456.656 1486.97,456.656L1460.45,456.656C1453.13,456.656 1447.19,462.597 1447.19,469.914L1447.19,498.118C1447.19,505.436 1453.13,511.376 1460.45,511.376L1486.97,511.376C1494.29,511.376 1500.23,505.436 1500.23,498.118L1500.23,469.914Z" style="fill:rgb(140,140,140);"/>
            </g>
            <g id="seat84" serif:id="seat" transform="matrix(0.624119,0,0,0.624119,8.18549,162.045)">
                <path d="M1500.23,469.914C1500.23,462.597 1494.29,456.656 1486.97,456.656L1460.45,456.656C1453.13,456.656 1447.19,462.597 1447.19,469.914L1447.19,498.118C1447.19,505.436 1453.13,511.376 1460.45,511.376L1486.97,511.376C1494.29,511.376 1500.23,505.436 1500.23,498.118L1500.23,469.914Z" style="fill:rgb(140,140,140);"/>
            </g>
            <g id="seat85" serif:id="seat" transform="matrix(0.624119,0,0,0.624119,8.18549,365.316)">
                <path d="M1500.23,469.914C1500.23,462.597 1494.29,456.656 1486.97,456.656L1460.45,456.656C1453.13,456.656 1447.19,462.597 1447.19,469.914L1447.19,498.118C1447.19,505.436 1453.13,511.376 1460.45,511.376L1486.97,511.376C1494.29,511.376 1500.23,505.436 1500.23,498.118L1500.23,469.914Z" style="fill:rgb(140,140,140);"/>
            </g>
            <g id="seat86" serif:id="seat" transform="matrix(0.624119,0,0,0.624119,8.18549,412.773)">
                <path d="M1500.23,469.914C1500.23,462.597 1494.29,456.656 1486.97,456.656L1460.45,456.656C1453.13,456.656 1447.19,462.597 1447.19,469.914L1447.19,498.118C1447.19,505.436 1453.13,511.376 1460.45,511.376L1486.97,511.376C1494.29,511.376 1500.23,505.436 1500.23,498.118L1500.23,469.914Z" style="fill:rgb(140,140,140);"/>
            </g>
            <g id="seat87" serif:id="seat" transform="matrix(0.624119,0,0,0.624119,8.18549,460.23)">
                <path d="M1500.23,469.914C1500.23,462.597 1494.29,456.656 1486.97,456.656L1460.45,456.656C1453.13,456.656 1447.19,462.597 1447.19,469.914L1447.19,498.118C1447.19,505.436 1453.13,511.376 1460.45,511.376L1486.97,511.376C1494.29,511.376 1500.23,505.436 1500.23,498.118L1500.23,469.914Z" style="fill:rgb(140,140,140);"/>
            </g>
        </g>
        <g id="_12" serif:id="12">
            <g id="seat88" serif:id="seat" transform="matrix(0.624119,0,0,0.624119,52.7158,257.859)">
                <path d="M1500.23,469.914C1500.23,462.597 1494.29,456.656 1486.97,456.656L1460.45,456.656C1453.13,456.656 1447.19,462.597 1447.19,469.914L1447.19,498.118C1447.19,505.436 1453.13,511.376 1460.45,511.376L1486.97,511.376C1494.29,511.376 1500.23,505.436 1500.23,498.118L1500.23,469.914Z" style="fill:rgb(140,140,140);"/>
            </g>
            <g id="seat89" serif:id="seat" transform="matrix(0.624119,0,0,0.624119,52.7158,209.67)">
                <path d="M1500.23,469.914C1500.23,462.597 1494.29,456.656 1486.97,456.656L1460.45,456.656C1453.13,456.656 1447.19,462.597 1447.19,469.914L1447.19,498.118C1447.19,505.436 1453.13,511.376 1460.45,511.376L1486.97,511.376C1494.29,511.376 1500.23,505.436 1500.23,498.118L1500.23,469.914Z" style="fill:rgb(140,140,140);"/>
            </g>
            <g id="seat90" serif:id="seat" transform="matrix(0.624119,0,0,0.624119,52.7158,162.045)">
                <path d="M1500.23,469.914C1500.23,462.597 1494.29,456.656 1486.97,456.656L1460.45,456.656C1453.13,456.656 1447.19,462.597 1447.19,469.914L1447.19,498.118C1447.19,505.436 1453.13,511.376 1460.45,511.376L1486.97,511.376C1494.29,511.376 1500.23,505.436 1500.23,498.118L1500.23,469.914Z" style="fill:rgb(140,140,140);"/>
            </g>
            <g id="seat91" serif:id="seat" transform="matrix(0.624119,0,0,0.624119,52.7158,365.316)">
                <path d="M1500.23,469.914C1500.23,462.597 1494.29,456.656 1486.97,456.656L1460.45,456.656C1453.13,456.656 1447.19,462.597 1447.19,469.914L1447.19,498.118C1447.19,505.436 1453.13,511.376 1460.45,511.376L1486.97,511.376C1494.29,511.376 1500.23,505.436 1500.23,498.118L1500.23,469.914Z" style="fill:rgb(140,140,140);"/>
            </g>
            <g id="seat92" serif:id="seat" transform="matrix(0.624119,0,0,0.624119,52.7158,412.773)">
                <path d="M1500.23,469.914C1500.23,462.597 1494.29,456.656 1486.97,456.656L1460.45,456.656C1453.13,456.656 1447.19,462.597 1447.19,469.914L1447.19,498.118C1447.19,505.436 1453.13,511.376 1460.45,511.376L1486.97,511.376C1494.29,511.376 1500.23,505.436 1500.23,498.118L1500.23,469.914Z" style="fill:rgb(140,140,140);"/>
            </g>
            <g id="seat93" serif:id="seat" transform="matrix(0.624119,0,0,0.624119,52.7158,460.23)">
                <path d="M1500.23,469.914C1500.23,462.597 1494.29,456.656 1486.97,456.656L1460.45,456.656C1453.13,456.656 1447.19,462.597 1447.19,469.914L1447.19,498.118C1447.19,505.436 1453.13,511.376 1460.45,511.376L1486.97,511.376C1494.29,511.376 1500.23,505.436 1500.23,498.118L1500.23,469.914Z" style="fill:rgb(140,140,140);"/>
            </g>
        </g>
        <g id="_42" serif:id="4">
            <g id="seat94" serif:id="seat" transform="matrix(0.624119,0,0,0.624119,-356.133,257.376)">
                <path d="M1500.23,469.914C1500.23,462.597 1494.29,456.656 1486.97,456.656L1460.45,456.656C1453.13,456.656 1447.19,462.597 1447.19,469.914L1447.19,498.118C1447.19,505.436 1453.13,511.376 1460.45,511.376L1486.97,511.376C1494.29,511.376 1500.23,505.436 1500.23,498.118L1500.23,469.914Z" style="fill:rgb(140,140,140);"/>
            </g>
            <g id="seat95" serif:id="seat" transform="matrix(0.624119,0,0,0.624119,-356.133,209.187)">
                <path d="M1500.23,469.914C1500.23,462.597 1494.29,456.656 1486.97,456.656L1460.45,456.656C1453.13,456.656 1447.19,462.597 1447.19,469.914L1447.19,498.118C1447.19,505.436 1453.13,511.376 1460.45,511.376L1486.97,511.376C1494.29,511.376 1500.23,505.436 1500.23,498.118L1500.23,469.914Z" style="fill:rgb(140,140,140);"/>
            </g>
            <g id="seat96" serif:id="seat" transform="matrix(0.624119,0,0,0.624119,-356.133,161.562)">
                <path d="M1500.23,469.914C1500.23,462.597 1494.29,456.656 1486.97,456.656L1460.45,456.656C1453.13,456.656 1447.19,462.597 1447.19,469.914L1447.19,498.118C1447.19,505.436 1453.13,511.376 1460.45,511.376L1486.97,511.376C1494.29,511.376 1500.23,505.436 1500.23,498.118L1500.23,469.914Z" style="fill:rgb(140,140,140);"/>
            </g>
            <g id="seat97" serif:id="seat" transform="matrix(0.624119,0,0,0.624119,-356.133,364.833)">
                <path d="M1500.23,469.914C1500.23,462.597 1494.29,456.656 1486.97,456.656L1460.45,456.656C1453.13,456.656 1447.19,462.597 1447.19,469.914L1447.19,498.118C1447.19,505.436 1453.13,511.376 1460.45,511.376L1486.97,511.376C1494.29,511.376 1500.23,505.436 1500.23,498.118L1500.23,469.914Z" style="fill:rgb(140,140,140);"/>
            </g>
            <g id="seat98" serif:id="seat" transform="matrix(0.624119,0,0,0.624119,-356.133,412.29)">
                <path d="M1500.23,469.914C1500.23,462.597 1494.29,456.656 1486.97,456.656L1460.45,456.656C1453.13,456.656 1447.19,462.597 1447.19,469.914L1447.19,498.118C1447.19,505.436 1453.13,511.376 1460.45,511.376L1486.97,511.376C1494.29,511.376 1500.23,505.436 1500.23,498.118L1500.23,469.914Z" style="fill:rgb(140,140,140);"/>
            </g>
            <g id="seat99" serif:id="seat" transform="matrix(0.624119,0,0,0.624119,-356.133,459.747)">
                <path d="M1500.23,469.914C1500.23,462.597 1494.29,456.656 1486.97,456.656L1460.45,456.656C1453.13,456.656 1447.19,462.597 1447.19,469.914L1447.19,498.118C1447.19,505.436 1453.13,511.376 1460.45,511.376L1486.97,511.376C1494.29,511.376 1500.23,505.436 1500.23,498.118L1500.23,469.914Z" style="fill:rgb(140,140,140);"/>
            </g>
        </g>
        <g id="_32" serif:id="3">
            <g id="seat100" serif:id="seat" transform="matrix(0.624119,0,0,0.624119,-404.21,257.371)">
                <path d="M1500.23,469.914C1500.23,462.597 1494.29,456.656 1486.97,456.656L1460.45,456.656C1453.13,456.656 1447.19,462.597 1447.19,469.914L1447.19,498.118C1447.19,505.436 1453.13,511.376 1460.45,511.376L1486.97,511.376C1494.29,511.376 1500.23,505.436 1500.23,498.118L1500.23,469.914Z" style="fill:rgb(140,140,140);"/>
            </g>
            <g id="seat101" serif:id="seat" transform="matrix(0.624119,0,0,0.624119,-404.21,209.182)">
                <path d="M1500.23,469.914C1500.23,462.597 1494.29,456.656 1486.97,456.656L1460.45,456.656C1453.13,456.656 1447.19,462.597 1447.19,469.914L1447.19,498.118C1447.19,505.436 1453.13,511.376 1460.45,511.376L1486.97,511.376C1494.29,511.376 1500.23,505.436 1500.23,498.118L1500.23,469.914Z" style="fill:rgb(140,140,140);"/>
            </g>
            <g id="seat102" serif:id="seat" transform="matrix(0.624119,0,0,0.624119,-404.21,161.557)">
                <path d="M1500.23,469.914C1500.23,462.597 1494.29,456.656 1486.97,456.656L1460.45,456.656C1453.13,456.656 1447.19,462.597 1447.19,469.914L1447.19,498.118C1447.19,505.436 1453.13,511.376 1460.45,511.376L1486.97,511.376C1494.29,511.376 1500.23,505.436 1500.23,498.118L1500.23,469.914Z" style="fill:rgb(140,140,140);"/>
            </g>
            <g id="seat103" serif:id="seat" transform="matrix(0.624119,0,0,0.624119,-404.21,364.828)">
                <path d="M1500.23,469.914C1500.23,462.597 1494.29,456.656 1486.97,456.656L1460.45,456.656C1453.13,456.656 1447.19,462.597 1447.19,469.914L1447.19,498.118C1447.19,505.436 1453.13,511.376 1460.45,511.376L1486.97,511.376C1494.29,511.376 1500.23,505.436 1500.23,498.118L1500.23,469.914Z" style="fill:rgb(140,140,140);"/>
            </g>
            <g id="seat104" serif:id="seat" transform="matrix(0.624119,0,0,0.624119,-404.21,412.285)">
                <path d="M1500.23,469.914C1500.23,462.597 1494.29,456.656 1486.97,456.656L1460.45,456.656C1453.13,456.656 1447.19,462.597 1447.19,469.914L1447.19,498.118C1447.19,505.436 1453.13,511.376 1460.45,511.376L1486.97,511.376C1494.29,511.376 1500.23,505.436 1500.23,498.118L1500.23,469.914Z" style="fill:rgb(140,140,140);"/>
            </g>
            <g id="seat105" serif:id="seat" transform="matrix(0.624119,0,0,0.624119,-404.21,459.742)">
                <path d="M1500.23,469.914C1500.23,462.597 1494.29,456.656 1486.97,456.656L1460.45,456.656C1453.13,456.656 1447.19,462.597 1447.19,469.914L1447.19,498.118C1447.19,505.436 1453.13,511.376 1460.45,511.376L1486.97,511.376C1494.29,511.376 1500.23,505.436 1500.23,498.118L1500.23,469.914Z" style="fill:rgb(140,140,140);"/>
            </g>
        </g>
        <g id="_22" serif:id="2">
            <g id="seat106" serif:id="seat" transform="matrix(0.624119,0,0,0.624119,-452.279,257.371)">
                <path d="M1500.23,469.914C1500.23,462.597 1494.29,456.656 1486.97,456.656L1460.45,456.656C1453.13,456.656 1447.19,462.597 1447.19,469.914L1447.19,498.118C1447.19,505.436 1453.13,511.376 1460.45,511.376L1486.97,511.376C1494.29,511.376 1500.23,505.436 1500.23,498.118L1500.23,469.914Z" style="fill:rgb(140,140,140);"/>
            </g>
            <g id="seat107" serif:id="seat" transform="matrix(0.624119,0,0,0.624119,-452.279,209.182)">
                <path d="M1500.23,469.914C1500.23,462.597 1494.29,456.656 1486.97,456.656L1460.45,456.656C1453.13,456.656 1447.19,462.597 1447.19,469.914L1447.19,498.118C1447.19,505.436 1453.13,511.376 1460.45,511.376L1486.97,511.376C1494.29,511.376 1500.23,505.436 1500.23,498.118L1500.23,469.914Z" style="fill:rgb(140,140,140);"/>
            </g>
            <g id="seat108" serif:id="seat" transform="matrix(0.624119,0,0,0.624119,-452.279,161.557)">
                <path d="M1500.23,469.914C1500.23,462.597 1494.29,456.656 1486.97,456.656L1460.45,456.656C1453.13,456.656 1447.19,462.597 1447.19,469.914L1447.19,498.118C1447.19,505.436 1453.13,511.376 1460.45,511.376L1486.97,511.376C1494.29,511.376 1500.23,505.436 1500.23,498.118L1500.23,469.914Z" style="fill:rgb(140,140,140);"/>
            </g>
            <g id="seat109" serif:id="seat" transform="matrix(0.624119,0,0,0.624119,-452.279,364.828)">
                <path d="M1500.23,469.914C1500.23,462.597 1494.29,456.656 1486.97,456.656L1460.45,456.656C1453.13,456.656 1447.19,462.597 1447.19,469.914L1447.19,498.118C1447.19,505.436 1453.13,511.376 1460.45,511.376L1486.97,511.376C1494.29,511.376 1500.23,505.436 1500.23,498.118L1500.23,469.914Z" style="fill:rgb(140,140,140);"/>
            </g>
            <g id="seat110" serif:id="seat" transform="matrix(0.624119,0,0,0.624119,-452.241,412.285)">
                <path d="M1500.23,469.914C1500.23,462.597 1494.29,456.656 1486.97,456.656L1460.45,456.656C1453.13,456.656 1447.19,462.597 1447.19,469.914L1447.19,498.118C1447.19,505.436 1453.13,511.376 1460.45,511.376L1486.97,511.376C1494.29,511.376 1500.23,505.436 1500.23,498.118L1500.23,469.914Z" style="fill:rgb(140,140,140);"/>
            </g>
            <g id="seat111" serif:id="seat" transform="matrix(0.624119,0,0,0.624119,-452.279,459.742)">
                <path d="M1500.23,469.914C1500.23,462.597 1494.29,456.656 1486.97,456.656L1460.45,456.656C1453.13,456.656 1447.19,462.597 1447.19,469.914L1447.19,498.118C1447.19,505.436 1453.13,511.376 1460.45,511.376L1486.97,511.376C1494.29,511.376 1500.23,505.436 1500.23,498.118L1500.23,469.914Z" style="fill:rgb(140,140,140);"/>
            </g>
        </g>
        <g id="_13" serif:id="1">
            <g id="seat112" serif:id="seat" transform="matrix(0.624119,0,0,0.624119,-500.524,257.371)">
                <path d="M1500.23,469.914C1500.23,462.597 1494.29,456.656 1486.97,456.656L1460.45,456.656C1453.13,456.656 1447.19,462.597 1447.19,469.914L1447.19,498.118C1447.19,505.436 1453.13,511.376 1460.45,511.376L1486.97,511.376C1494.29,511.376 1500.23,505.436 1500.23,498.118L1500.23,469.914Z" style="fill:rgb(140,140,140);"/>
            </g>
            <g id="seat113" serif:id="seat" transform="matrix(0.624119,0,0,0.624119,-500.524,209.182)">
                <path d="M1500.23,469.914C1500.23,462.597 1494.29,456.656 1486.97,456.656L1460.45,456.656C1453.13,456.656 1447.19,462.597 1447.19,469.914L1447.19,498.118C1447.19,505.436 1453.13,511.376 1460.45,511.376L1486.97,511.376C1494.29,511.376 1500.23,505.436 1500.23,498.118L1500.23,469.914Z" style="fill:rgb(140,140,140);"/>
            </g>
            <g id="seat114" serif:id="seat" transform="matrix(0.624119,0,0,0.624119,-500.524,161.557)">
                <path d="M1500.23,469.914C1500.23,462.597 1494.29,456.656 1486.97,456.656L1460.45,456.656C1453.13,456.656 1447.19,462.597 1447.19,469.914L1447.19,498.118C1447.19,505.436 1453.13,511.376 1460.45,511.376L1486.97,511.376C1494.29,511.376 1500.23,505.436 1500.23,498.118L1500.23,469.914Z" style="fill:rgb(140,140,140);"/>
            </g>
            <g id="seat115" serif:id="seat" transform="matrix(0.624119,0,0,0.624119,-500.524,364.828)">
                <path d="M1500.23,469.914C1500.23,462.597 1494.29,456.656 1486.97,456.656L1460.45,456.656C1453.13,456.656 1447.19,462.597 1447.19,469.914L1447.19,498.118C1447.19,505.436 1453.13,511.376 1460.45,511.376L1486.97,511.376C1494.29,511.376 1500.23,505.436 1500.23,498.118L1500.23,469.914Z" style="fill:rgb(140,140,140);"/>
            </g>
            <g id="seat116" serif:id="seat" transform="matrix(0.624119,0,0,0.624119,-500.486,412.285)">
                <path d="M1500.23,469.914C1500.23,462.597 1494.29,456.656 1486.97,456.656L1460.45,456.656C1453.13,456.656 1447.19,462.597 1447.19,469.914L1447.19,498.118C1447.19,505.436 1453.13,511.376 1460.45,511.376L1486.97,511.376C1494.29,511.376 1500.23,505.436 1500.23,498.118L1500.23,469.914Z" style="fill:rgb(140,140,140);"/>
            </g>
            <g id="seat117" serif:id="seat" transform="matrix(0.624119,0,0,0.624119,-500.524,459.742)">
                <path d="M1500.23,469.914C1500.23,462.597 1494.29,456.656 1486.97,456.656L1460.45,456.656C1453.13,456.656 1447.19,462.597 1447.19,469.914L1447.19,498.118C1447.19,505.436 1453.13,511.376 1460.45,511.376L1486.97,511.376C1494.29,511.376 1500.23,505.436 1500.23,498.118L1500.23,469.914Z" style="fill:rgb(140,140,140);"/>
            </g>
        </g>
    </g>
</svg>
